<?xml version="1.0" encoding="UTF-8"?>
<!DOCTYPE score-partwise PUBLIC "-//Recordare//DTD MusicXML 3.1 Partwise//EN" "http://www.musicxml.org/dtds/partwise.dtd">
<score-partwise version="3.1"><identification><encoding><encoding-date>2023-11-07</encoding-date><software>Braille Music Editor v2</software></encoding></identification><defaults><lyric-font font-family="Times New Roman"/></defaults><part-list><score-part id="bmml-p01"><part-name/></score-part><score-part id="bmml-p02"><part-name/></score-part></part-list><part id="bmml-p01"><measure number="1"><attributes><divisions>2</divisions><key><fifths>0</fifths></key><clef><sign>G</sign><line>2</line></clef></attributes><direction><direction-type><words>None</words></direction-type></direction><direction><direction-type><words>None</words></direction-type></direction><direction><direction-type><words>None</words></direction-type></direction><direction><direction-type><words>None</words></direction-type></direction><direction><direction-type><words>None</words></direction-type></direction><direction><direction-type><words>None</words></direction-type></direction><direction><direction-type><words>None</words></direction-type></direction><direction><direction-type><words>None</words></direction-type></direction><direction><direction-type><words>None</words></direction-type></direction><direction><direction-type><words>None</words></direction-type></direction><direction><direction-type><words>None</words></direction-type></direction><direction><direction-type><words>None</words></direction-type></direction><direction><direction-type><words>None</words></direction-type></direction><direction><direction-type><words>None</words></direction-type></direction><direction><direction-type><words>None</words></direction-type></direction><direction><direction-type><words>None</words></direction-type></direction><attributes><key><fifths>2</fifths></key><time symbol="common"><beats>4</beats><beat-type>4</beat-type></time></attributes><note><pitch><step>A</step><octave>4</octave></pitch><duration>2</duration><voice>1</voice><type>quarter</type><notations><technical><fingering>1</fingering></technical></notations></note></measure><measure number="2"><note><pitch><step>D</step><octave>5</octave></pitch><duration>2</duration><voice>1</voice><type>quarter</type><notations><technical><fingering>4</fingering></technical></notations></note><note><pitch><step>A</step><octave>4</octave></pitch><duration>4</duration><voice>1</voice><type>half</type><notations><technical><fingering>1</fingering></technical></notations></note><note><pitch><step>B</step><octave>4</octave></pitch><duration>1</duration><voice>1</voice><type>eighth</type><beam number="1">begin</beam></note><note><pitch><step>C</step><alter>1</alter><octave>5</octave></pitch><duration>1</duration><voice>1</voice><type>eighth</type><beam number="1">end</beam></note></measure><measure number="3"><note><pitch><step>D</step><octave>5</octave></pitch><duration>2</duration><voice>1</voice><type>quarter</type><notations><technical><fingering>4</fingering></technical></notations></note><note><pitch><step>A</step><octave>4</octave></pitch><duration>4</duration><voice>1</voice><type>half</type><notations><technical><fingering>1</fingering></technical></notations></note><note><pitch><step>B</step><octave>4</octave></pitch><duration>1</duration><voice>1</voice><type>eighth</type><beam number="1">begin</beam></note><note><pitch><step>C</step><alter>1</alter><octave>5</octave></pitch><duration>1</duration><voice>1</voice><type>eighth</type><beam number="1">end</beam></note></measure><measure number="4"><note><pitch><step>D</step><octave>5</octave></pitch><duration>1</duration><voice>1</voice><type>eighth</type><beam number="1">begin</beam><notations><technical><fingering>1</fingering></technical></notations></note><note><pitch><step>E</step><octave>5</octave></pitch><duration>1</duration><voice>1</voice><type>eighth</type><beam number="1">continue</beam></note><note><pitch><step>F</step><alter>1</alter><octave>5</octave></pitch><duration>1</duration><voice>1</voice><type>eighth</type><beam number="1">continue</beam></note><note><pitch><step>G</step><octave>5</octave></pitch><duration>1</duration><voice>1</voice><type>eighth</type><beam number="1">end</beam></note><note><pitch><step>A</step><octave>5</octave></pitch><duration>1</duration><voice>1</voice><type>eighth</type><beam number="1">begin</beam></note><note><pitch><step>G</step><octave>5</octave></pitch><duration>1</duration><voice>1</voice><type>eighth</type><beam number="1">continue</beam></note><note><pitch><step>F</step><alter>1</alter><octave>5</octave></pitch><duration>1</duration><voice>1</voice><type>eighth</type><beam number="1">continue</beam></note><note><pitch><step>E</step><octave>5</octave></pitch><duration>1</duration><voice>1</voice><type>eighth</type><beam number="1">end</beam></note></measure><measure number="5"><note><pitch><step>F</step><alter>1</alter><octave>5</octave></pitch><duration>2</duration><voice>1</voice><type>quarter</type><notations><technical><fingering>3</fingering></technical></notations></note><note><pitch><step>D</step><octave>5</octave></pitch><duration>4</duration><voice>1</voice><type>half</type><notations><technical><fingering>1</fingering></technical></notations></note><note><pitch><step>F</step><alter>1</alter><octave>5</octave></pitch><duration>1</duration><voice>1</voice><type>eighth</type><beam number="1">begin</beam><notations><technical><fingering>3</fingering></technical></notations></note><note><pitch><step>E</step><octave>5</octave></pitch><duration>1</duration><voice>1</voice><type>eighth</type><beam number="1">end</beam><notations><technical><fingering>2</fingering></technical></notations></note></measure><measure number="6"><note><pitch><step>F</step><alter>1</alter><octave>5</octave></pitch><duration>2</duration><voice>1</voice><type>quarter</type><notations><technical><fingering>3</fingering></technical></notations></note><note><pitch><step>D</step><octave>5</octave></pitch><duration>4</duration><voice>1</voice><type>half</type><notations><technical><fingering>1</fingering></technical></notations></note><note><pitch><step>B</step><octave>4</octave></pitch><duration>1</duration><voice>1</voice><type>eighth</type><beam number="1">begin</beam><notations><technical><fingering>2</fingering></technical></notations></note><note><pitch><step>A</step><octave>4</octave></pitch><duration>1</duration><voice>1</voice><type>eighth</type><beam number="1">end</beam></note></measure><measure number="7"><note><pitch><step>B</step><octave>4</octave></pitch><duration>1</duration><voice>1</voice><type>eighth</type><beam number="1">begin</beam><notations><technical><fingering>3</fingering></technical></notations></note><note><pitch><step>G</step><alter>1</alter><octave>4</octave></pitch><duration>1</duration><voice>1</voice><type>eighth</type><accidental>sharp</accidental><beam number="1">end</beam><notations><technical><fingering>2</fingering></technical></notations></note><note><pitch><step>E</step><octave>5</octave></pitch><duration>2</duration><tie type="start"/><voice>1</voice><type>quarter</type><notations><tied type="start"/><technical><fingering>5</fingering></technical></notations></note><note><pitch><step>E</step><octave>5</octave></pitch><duration>1</duration><tie type="stop"/><voice>1</voice><type>eighth</type><beam number="1">begin</beam><notations><tied type="stop"/></notations></note><note><pitch><step>D</step><octave>5</octave></pitch><duration>1</duration><voice>1</voice><type>eighth</type><beam number="1">continue</beam></note><note><pitch><step>C</step><alter>1</alter><octave>5</octave></pitch><duration>1</duration><voice>1</voice><type>eighth</type><beam number="1">continue</beam></note><note><pitch><step>B</step><octave>4</octave></pitch><duration>1</duration><voice>1</voice><type>eighth</type><beam number="1">end</beam></note></measure><measure number="8"><note><pitch><step>A</step><octave>4</octave></pitch><duration>3</duration><voice>1</voice><type>quarter</type><dot/></note><note><pitch><step>D</step><octave>5</octave></pitch><duration>1</duration><voice>1</voice><type>eighth</type><notations><technical><fingering>4</fingering></technical></notations></note><note><pitch><step>B</step><octave>4</octave></pitch><duration>3</duration><voice>1</voice><type>quarter</type><dot/><notations><ornaments><inverted-mordent/></ornaments><technical><fingering>2</fingering><fingering substitution="yes" relative-x="10">3</fingering><fingering substitution="yes" relative-x="20">2</fingering></technical></notations></note><note><pitch><step>A</step><octave>4</octave></pitch><duration>1</duration><voice>1</voice><type>eighth</type><notations><technical><fingering>1</fingering></technical></notations></note></measure><measure number="9"><note><pitch><step>A</step><octave>4</octave></pitch><duration>2</duration><voice>1</voice><type>quarter</type><notations><technical><fingering>2</fingering></technical></notations></note><note><pitch><step>E</step><octave>4</octave></pitch><duration>1</duration><voice>1</voice><type>eighth</type><beam number="1">begin</beam><notations><technical><fingering>1</fingering></technical></notations></note><note><pitch><step>A</step><octave>4</octave></pitch><duration>1</duration><voice>1</voice><type>eighth</type><beam number="1">end</beam><notations><technical><fingering>2</fingering></technical></notations></note><note><pitch><step>C</step><alter>1</alter><octave>5</octave></pitch><duration>1</duration><voice>1</voice><type>eighth</type><beam number="1">begin</beam><notations><technical><fingering>4</fingering></technical></notations></note><note><pitch><step>A</step><octave>4</octave></pitch><duration>1</duration><voice>1</voice><type>eighth</type><beam number="1">continue</beam><notations><technical><fingering>1</fingering></technical></notations></note><note><pitch><step>C</step><alter>1</alter><octave>5</octave></pitch><duration>1</duration><voice>1</voice><type>eighth</type><beam number="1">continue</beam><notations><technical><fingering>2</fingering></technical></notations></note><note><pitch><step>E</step><octave>5</octave></pitch><duration>1</duration><voice>1</voice><type>eighth</type><beam number="1">end</beam><notations><technical><fingering>3</fingering></technical></notations></note></measure><measure number="10"><note><pitch><step>A</step><octave>5</octave></pitch><duration>6</duration><voice>1</voice><type>half</type><dot/><notations><technical><fingering>5</fingering></technical></notations></note><note><pitch><step>A</step><octave>4</octave></pitch><duration>2</duration><voice>1</voice><type>quarter</type><notations><technical><fingering>1</fingering></technical></notations></note></measure><measure number="11"><note><pitch><step>D</step><octave>5</octave></pitch><duration>2</duration><voice>1</voice><type>quarter</type><notations><technical><fingering>4</fingering></technical></notations></note><note><pitch><step>A</step><octave>4</octave></pitch><duration>4</duration><voice>1</voice><type>half</type><notations><technical><fingering>1</fingering></technical></notations></note><note><pitch><step>B</step><octave>4</octave></pitch><duration>1</duration><voice>1</voice><type>eighth</type><beam number="1">begin</beam></note><note><pitch><step>C</step><alter>1</alter><octave>5</octave></pitch><duration>1</duration><voice>1</voice><type>eighth</type><beam number="1">end</beam></note></measure><measure number="12"><note><pitch><step>D</step><octave>5</octave></pitch><duration>2</duration><voice>1</voice><type>quarter</type><notations><technical><fingering>4</fingering></technical></notations></note><note><pitch><step>A</step><octave>4</octave></pitch><duration>4</duration><voice>1</voice><type>half</type><notations><technical><fingering>1</fingering></technical></notations></note><note><pitch><step>B</step><octave>4</octave></pitch><duration>1</duration><voice>1</voice><type>eighth</type><beam number="1">begin</beam><notations><technical><fingering>2</fingering></technical></notations></note><note><pitch><step>C</step><alter>1</alter><octave>5</octave></pitch><duration>1</duration><voice>1</voice><type>eighth</type><beam number="1">end</beam><notations><technical><fingering>3</fingering></technical></notations></note></measure><measure number="13"><note><pitch><step>D</step><octave>5</octave></pitch><duration>1</duration><voice>1</voice><type>eighth</type><beam number="1">begin</beam><notations><technical><fingering>1</fingering></technical></notations></note><note><pitch><step>E</step><octave>5</octave></pitch><duration>1</duration><voice>1</voice><type>eighth</type><beam number="1">continue</beam></note><note><pitch><step>F</step><alter>1</alter><octave>5</octave></pitch><duration>1</duration><voice>1</voice><type>eighth</type><beam number="1">continue</beam></note><note><pitch><step>G</step><octave>5</octave></pitch><duration>1</duration><voice>1</voice><type>eighth</type><beam number="1">end</beam></note><note><pitch><step>A</step><octave>5</octave></pitch><duration>1</duration><voice>1</voice><type>eighth</type><beam number="1">begin</beam></note><note><pitch><step>G</step><octave>5</octave></pitch><duration>1</duration><voice>1</voice><type>eighth</type><beam number="1">continue</beam></note><note><pitch><step>F</step><alter>1</alter><octave>5</octave></pitch><duration>1</duration><voice>1</voice><type>eighth</type><beam number="1">continue</beam></note><note><pitch><step>E</step><octave>5</octave></pitch><duration>1</duration><voice>1</voice><type>eighth</type><beam number="1">end</beam></note></measure><measure number="14"><note><pitch><step>F</step><alter>1</alter><octave>5</octave></pitch><duration>2</duration><voice>1</voice><type>quarter</type><notations><technical><fingering>3</fingering></technical></notations></note><note><pitch><step>D</step><octave>5</octave></pitch><duration>4</duration><voice>1</voice><type>half</type><notations><technical><fingering>1</fingering></technical></notations></note><note><pitch><step>F</step><alter>1</alter><octave>5</octave></pitch><duration>1</duration><voice>1</voice><type>eighth</type><beam number="1">begin</beam><notations><technical><fingering>3</fingering></technical></notations></note><note><pitch><step>E</step><octave>5</octave></pitch><duration>1</duration><voice>1</voice><type>eighth</type><beam number="1">end</beam><notations><technical><fingering>2</fingering></technical></notations></note></measure><measure number="15"><note><pitch><step>F</step><alter>1</alter><octave>5</octave></pitch><duration>2</duration><voice>1</voice><type>quarter</type><notations><technical><fingering>3</fingering></technical></notations></note><note><pitch><step>D</step><octave>5</octave></pitch><duration>4</duration><voice>1</voice><type>half</type><notations><technical><fingering>1</fingering></technical></notations></note><note><pitch><step>B</step><octave>4</octave></pitch><duration>1</duration><voice>1</voice><type>eighth</type><beam number="1">begin</beam><notations><technical><fingering>2</fingering></technical></notations></note><note><pitch><step>A</step><octave>4</octave></pitch><duration>1</duration><voice>1</voice><type>eighth</type><beam number="1">end</beam></note></measure><measure number="16"><note><pitch><step>B</step><octave>4</octave></pitch><duration>1</duration><voice>1</voice><type>eighth</type><beam number="1">begin</beam><notations><technical><fingering>3</fingering></technical></notations></note><note><pitch><step>G</step><alter>1</alter><octave>4</octave></pitch><duration>1</duration><voice>1</voice><type>eighth</type><accidental>sharp</accidental><beam number="1">end</beam><notations><technical><fingering>2</fingering></technical></notations></note><note><pitch><step>E</step><octave>5</octave></pitch><duration>2</duration><tie type="start"/><voice>1</voice><type>quarter</type><notations><tied type="start"/><technical><fingering>5</fingering></technical></notations></note><note><pitch><step>E</step><octave>5</octave></pitch><duration>1</duration><tie type="stop"/><voice>1</voice><type>eighth</type><beam number="1">begin</beam><notations><tied type="stop"/></notations></note><note><pitch><step>D</step><octave>5</octave></pitch><duration>1</duration><voice>1</voice><type>eighth</type><beam number="1">continue</beam></note><note><pitch><step>C</step><alter>1</alter><octave>5</octave></pitch><duration>1</duration><voice>1</voice><type>eighth</type><beam number="1">continue</beam></note><note><pitch><step>B</step><octave>4</octave></pitch><duration>1</duration><voice>1</voice><type>eighth</type><beam number="1">end</beam></note></measure><measure number="17"><note><pitch><step>A</step><octave>4</octave></pitch><duration>3</duration><voice>1</voice><type>quarter</type><dot/></note><note><pitch><step>D</step><octave>5</octave></pitch><duration>1</duration><voice>1</voice><type>eighth</type><notations><technical><fingering>4</fingering></technical></notations></note><note><pitch><step>B</step><octave>4</octave></pitch><duration>3</duration><voice>1</voice><type>quarter</type><dot/><notations><ornaments><inverted-mordent/></ornaments><technical><fingering>2</fingering><fingering substitution="yes" relative-x="10">3</fingering><fingering substitution="yes" relative-x="20">2</fingering></technical></notations></note><note><pitch><step>A</step><octave>4</octave></pitch><duration>1</duration><voice>1</voice><type>eighth</type><notations><technical><fingering>1</fingering></technical></notations></note></measure><measure number="18"><note><pitch><step>A</step><octave>4</octave></pitch><duration>2</duration><voice>1</voice><type>quarter</type><notations><technical><fingering>2</fingering></technical></notations></note><note><pitch><step>E</step><octave>4</octave></pitch><duration>1</duration><voice>1</voice><type>eighth</type><beam number="1">begin</beam><notations><technical><fingering>1</fingering></technical></notations></note><note><pitch><step>A</step><octave>4</octave></pitch><duration>1</duration><voice>1</voice><type>eighth</type><beam number="1">end</beam><notations><technical><fingering>2</fingering></technical></notations></note><note><pitch><step>C</step><alter>1</alter><octave>5</octave></pitch><duration>1</duration><voice>1</voice><type>eighth</type><beam number="1">begin</beam><notations><technical><fingering>4</fingering></technical></notations></note><note><pitch><step>A</step><octave>4</octave></pitch><duration>1</duration><voice>1</voice><type>eighth</type><beam number="1">continue</beam><notations><technical><fingering>1</fingering></technical></notations></note><note><pitch><step>C</step><alter>1</alter><octave>5</octave></pitch><duration>1</duration><voice>1</voice><type>eighth</type><beam number="1">continue</beam><notations><technical><fingering>2</fingering></technical></notations></note><note><pitch><step>E</step><octave>5</octave></pitch><duration>1</duration><voice>1</voice><type>eighth</type><beam number="1">end</beam><notations><technical><fingering>3</fingering></technical></notations></note></measure><measure number="19"><note><pitch><step>A</step><octave>5</octave></pitch><duration>6</duration><voice>1</voice><type>half</type><dot/><notations><technical><fingering>5</fingering></technical></notations></note><barline location="right"><bar-style>light-heavy</bar-style><repeat direction="backward"/></barline></measure><measure number="20"><barline location="left"><bar-style>heavy-light</bar-style><repeat direction="forward"/></barline><note><pitch><step>E</step><octave>5</octave></pitch><duration>2</duration><voice>1</voice><type>quarter</type><notations><technical><fingering>2</fingering></technical></notations></note></measure><measure number="21"><note><pitch><step>A</step><octave>5</octave></pitch><duration>2</duration><voice>1</voice><type>quarter</type><notations><technical><fingering>5</fingering></technical></notations></note><note><pitch><step>E</step><octave>5</octave></pitch><duration>4</duration><voice>1</voice><type>half</type><notations><technical><fingering>2</fingering></technical></notations></note><note><pitch><step>F</step><alter>1</alter><octave>5</octave></pitch><duration>1</duration><voice>1</voice><type>eighth</type><beam number="1">begin</beam></note><note><pitch><step>G</step><alter>1</alter><octave>5</octave></pitch><duration>1</duration><voice>1</voice><type>eighth</type><accidental>sharp</accidental><beam number="1">end</beam></note></measure><measure number="22"><note><pitch><step>A</step><octave>5</octave></pitch><duration>2</duration><voice>1</voice><type>quarter</type><notations><technical><fingering>5</fingering></technical></notations></note><note><pitch><step>E</step><octave>5</octave></pitch><duration>4</duration><voice>1</voice><type>half</type><notations><technical><fingering>2</fingering></technical></notations></note><note><pitch><step>F</step><alter>1</alter><octave>5</octave></pitch><duration>1</duration><voice>1</voice><type>eighth</type><beam number="1">begin</beam></note><note><pitch><step>G</step><alter>1</alter><octave>5</octave></pitch><duration>1</duration><voice>1</voice><type>eighth</type><accidental>sharp</accidental><beam number="1">end</beam></note></measure><measure number="23"><note><pitch><step>A</step><octave>5</octave></pitch><duration>2</duration><voice>1</voice><type>quarter</type><notations><technical><fingering>5</fingering></technical></notations></note><note><pitch><step>G</step><alter>0</alter><octave>5</octave></pitch><duration>1</duration><voice>1</voice><type>eighth</type><accidental>natural</accidental><beam number="1">begin</beam><notations><technical><fingering>4</fingering></technical></notations></note><note><pitch><step>F</step><alter>1</alter><octave>5</octave></pitch><duration>1</duration><voice>1</voice><type>eighth</type><beam number="1">end</beam></note><note><pitch><step>E</step><octave>5</octave></pitch><duration>1</duration><voice>1</voice><type>eighth</type><beam number="1">begin</beam><notations><technical><fingering>2</fingering></technical></notations></note><note><pitch><step>F</step><alter>1</alter><octave>5</octave></pitch><duration>1</duration><voice>1</voice><type>eighth</type><beam number="1">continue</beam><notations><technical><fingering>3</fingering></technical></notations></note><note><pitch><step>G</step><octave>5</octave></pitch><duration>1</duration><voice>1</voice><type>eighth</type><beam number="1">continue</beam><notations><technical><fingering>4</fingering></technical></notations></note><note><pitch><step>E</step><octave>5</octave></pitch><duration>1</duration><voice>1</voice><type>eighth</type><beam number="1">end</beam><notations><technical><fingering>2</fingering></technical></notations></note></measure><measure number="24"><note><pitch><step>F</step><alter>1</alter><octave>5</octave></pitch><duration>2</duration><voice>1</voice><type>quarter</type><notations><technical><fingering>3</fingering></technical></notations></note><note><pitch><step>D</step><octave>5</octave></pitch><duration>2</duration><tie type="start"/><voice>1</voice><type>quarter</type><notations><tied type="start"/><technical><fingering>1</fingering></technical></notations></note><note><pitch><step>D</step><octave>5</octave></pitch><duration>1</duration><tie type="stop"/><voice>1</voice><type>eighth</type><beam number="1">begin</beam><notations><tied type="stop"/></notations></note><note><pitch><step>A</step><octave>4</octave></pitch><duration>1</duration><voice>1</voice><type>eighth</type><beam number="1">continue</beam><notations><technical><fingering>2</fingering></technical></notations></note><note><pitch><step>B</step><octave>4</octave></pitch><duration>1</duration><voice>1</voice><type>eighth</type><beam number="1">continue</beam><notations><technical><fingering>3</fingering></technical></notations></note><note><pitch><step>C</step><alter>0</alter><octave>5</octave></pitch><duration>1</duration><voice>1</voice><type>eighth</type><accidental>natural</accidental><beam number="1">end</beam><notations><technical><fingering>4</fingering></technical></notations></note></measure><measure number="25"><note><pitch><step>B</step><octave>4</octave></pitch><duration>1</duration><voice>1</voice><type>eighth</type><beam number="1">begin</beam><notations><technical><fingering>1</fingering></technical></notations></note><note><pitch><step>D</step><octave>5</octave></pitch><duration>1</duration><voice>1</voice><type>eighth</type><beam number="1">continue</beam><notations><technical><fingering>2</fingering></technical></notations></note><note><pitch><step>E</step><octave>5</octave></pitch><duration>1</duration><voice>1</voice><type>eighth</type><beam number="1">continue</beam></note><note><pitch><step>F</step><alter>1</alter><octave>5</octave></pitch><duration>1</duration><voice>1</voice><type>eighth</type><beam number="1">end</beam></note><note><pitch><step>G</step><octave>5</octave></pitch><duration>1</duration><voice>1</voice><type>eighth</type><beam number="1">begin</beam></note><note><pitch><step>B</step><octave>4</octave></pitch><duration>1</duration><voice>1</voice><type>eighth</type><beam number="1">continue</beam><notations><technical><fingering>1</fingering></technical></notations></note><note><pitch><step>C</step><alter>1</alter><octave>5</octave></pitch><duration>1</duration><voice>1</voice><type>eighth</type><accidental>sharp</accidental><beam number="1">continue</beam></note><note><pitch><step>D</step><octave>5</octave></pitch><duration>1</duration><voice>1</voice><type>eighth</type><beam number="1">end</beam></note></measure><measure number="26"><note><pitch><step>C</step><alter>1</alter><octave>5</octave></pitch><duration>1</duration><voice>1</voice><type>eighth</type><beam number="1">begin</beam><notations><technical><fingering>2</fingering></technical></notations></note><note><pitch><step>E</step><octave>5</octave></pitch><duration>1</duration><voice>1</voice><type>eighth</type><beam number="1">continue</beam><notations><technical><fingering>1</fingering></technical></notations></note><note><pitch><step>F</step><alter>1</alter><octave>5</octave></pitch><duration>1</duration><voice>1</voice><type>eighth</type><beam number="1">continue</beam><notations><technical><fingering>3</fingering></technical></notations></note><note><pitch><step>G</step><octave>5</octave></pitch><duration>1</duration><voice>1</voice><type>eighth</type><beam number="1">end</beam></note><note><pitch><step>A</step><octave>5</octave></pitch><duration>1</duration><voice>1</voice><type>eighth</type><beam number="1">begin</beam></note><note><pitch><step>C</step><alter>1</alter><octave>5</octave></pitch><duration>1</duration><voice>1</voice><type>eighth</type><beam number="1">continue</beam></note><note><pitch><step>D</step><octave>5</octave></pitch><duration>1</duration><voice>1</voice><type>eighth</type><beam number="1">continue</beam><notations><technical><fingering>1</fingering></technical></notations></note><note><pitch><step>E</step><octave>5</octave></pitch><duration>1</duration><voice>1</voice><type>eighth</type><beam number="1">end</beam><notations><technical><fingering>3</fingering></technical></notations></note></measure><measure number="27"><note><pitch><step>D</step><octave>5</octave></pitch><duration>1</duration><voice>1</voice><type>eighth</type><beam number="1">begin</beam><notations><technical><fingering>1</fingering></technical></notations></note><note><pitch><step>G</step><octave>5</octave></pitch><duration>1</duration><voice>1</voice><type>eighth</type><beam number="1">continue</beam><notations><technical><fingering>3</fingering></technical></notations></note><note><pitch><step>B</step><octave>5</octave></pitch><duration>1</duration><voice>1</voice><type>eighth</type><beam number="1">continue</beam><notations><technical><fingering>5</fingering></technical></notations></note><note><pitch><step>A</step><octave>5</octave></pitch><duration>1</duration><voice>1</voice><type>eighth</type><beam number="1">end</beam></note><note><pitch><step>G</step><octave>5</octave></pitch><duration>1</duration><voice>1</voice><type>eighth</type><beam number="1">begin</beam></note><note><pitch><step>F</step><alter>1</alter><octave>5</octave></pitch><duration>1</duration><voice>1</voice><type>eighth</type><beam number="1">continue</beam></note><note><pitch><step>E</step><octave>5</octave></pitch><duration>1</duration><voice>1</voice><type>eighth</type><beam number="1">continue</beam></note><note><pitch><step>D</step><octave>5</octave></pitch><duration>1</duration><voice>1</voice><type>eighth</type><beam number="1">end</beam><notations><technical><fingering>3</fingering></technical></notations></note></measure><measure number="28"><note><pitch><step>C</step><alter>1</alter><octave>5</octave></pitch><duration>2</duration><voice>1</voice><type>quarter</type><notations><technical><fingering>2</fingering></technical></notations></note><note><pitch><step>A</step><octave>4</octave></pitch><duration>4</duration><voice>1</voice><type>half</type></note><note><pitch><step>D</step><octave>5</octave></pitch><duration>1</duration><voice>1</voice><type>eighth</type><beam number="1">begin</beam><notations><technical><fingering>5</fingering></technical></notations></note><note><pitch><step>A</step><octave>4</octave></pitch><duration>1</duration><voice>1</voice><type>eighth</type><beam number="1">end</beam><notations><technical><fingering>2</fingering></technical></notations></note></measure><measure number="29"><note><pitch><step>B</step><octave>4</octave></pitch><duration>1</duration><voice>1</voice><type>eighth</type><beam number="1">begin</beam><notations><technical><fingering>3</fingering></technical></notations></note><note><pitch><step>A</step><octave>4</octave></pitch><duration>1</duration><voice>1</voice><type>eighth</type><beam number="1">continue</beam></note><note><pitch><step>G</step><octave>4</octave></pitch><duration>1</duration><voice>1</voice><type>eighth</type><beam number="1">continue</beam></note><note><pitch><step>F</step><alter>1</alter><octave>4</octave></pitch><duration>1</duration><voice>1</voice><type>eighth</type><beam number="1">end</beam><notations><technical><fingering>2</fingering></technical></notations></note><note><pitch><step>G</step><octave>4</octave></pitch><duration>1</duration><voice>1</voice><type>eighth</type><beam number="1">begin</beam><notations><technical><fingering>1</fingering></technical></notations></note><note><pitch><step>B</step><octave>4</octave></pitch><duration>1</duration><voice>1</voice><type>eighth</type><beam number="1">continue</beam><notations><technical><fingering>3</fingering></technical></notations></note><note><pitch><step>E</step><octave>5</octave></pitch><duration>1</duration><voice>1</voice><type>eighth</type><beam number="1">continue</beam><notations><technical><fingering>5</fingering></technical></notations></note><note><pitch><step>B</step><octave>4</octave></pitch><duration>1</duration><voice>1</voice><type>eighth</type><beam number="1">end</beam><notations><technical><fingering>2</fingering></technical></notations></note></measure><measure number="30"><note><pitch><step>C</step><alter>1</alter><octave>5</octave></pitch><duration>1</duration><voice>1</voice><type>eighth</type><beam number="1">begin</beam><notations><technical><fingering>3</fingering></technical></notations></note><note><pitch><step>A</step><octave>4</octave></pitch><duration>1</duration><voice>1</voice><type>eighth</type><beam number="1">continue</beam><notations><technical><fingering>1</fingering></technical></notations></note><note><pitch><step>B</step><octave>4</octave></pitch><duration>1</duration><voice>1</voice><type>eighth</type><beam number="1">continue</beam></note><note><pitch><step>C</step><alter>1</alter><octave>5</octave></pitch><duration>1</duration><voice>1</voice><type>eighth</type><beam number="1">end</beam></note><note><pitch><step>D</step><octave>5</octave></pitch><duration>1</duration><voice>1</voice><type>eighth</type><beam number="1">begin</beam><notations><technical><fingering>1</fingering></technical></notations></note><note><pitch><step>E</step><octave>5</octave></pitch><duration>1</duration><voice>1</voice><type>eighth</type><beam number="1">continue</beam></note><note><pitch><step>F</step><alter>1</alter><octave>5</octave></pitch><duration>1</duration><voice>1</voice><type>eighth</type><beam number="1">continue</beam></note><note><pitch><step>G</step><octave>5</octave></pitch><duration>1</duration><voice>1</voice><type>eighth</type><beam number="1">end</beam></note></measure><measure number="31"><note><pitch><step>A</step><octave>5</octave></pitch><duration>2</duration><voice>1</voice><type>quarter</type><notations><technical><fingering>5</fingering></technical></notations></note><note><pitch><step>D</step><octave>5</octave></pitch><duration>2</duration><voice>1</voice><type>quarter</type><notations><technical><fingering>1</fingering></technical></notations></note><note><pitch><step>F</step><alter>1</alter><octave>5</octave></pitch><duration>1</duration><voice>1</voice><type>eighth</type><beam number="1">begin</beam><notations><technical><fingering>3</fingering></technical></notations></note><note><pitch><step>E</step><octave>5</octave></pitch><duration>1</duration><voice>1</voice><type>eighth</type><beam number="1">continue</beam></note><note><pitch><step>D</step><octave>5</octave></pitch><duration>1</duration><voice>1</voice><type>eighth</type><beam number="1">continue</beam></note><note><pitch><step>C</step><alter>1</alter><octave>5</octave></pitch><duration>1</duration><voice>1</voice><type>eighth</type><beam number="1">end</beam><notations><technical><fingering>2</fingering></technical></notations></note></measure><measure number="32"><note><pitch><step>D</step><octave>5</octave></pitch><duration>2</duration><voice>1</voice><type>quarter</type><notations><technical><fingering>3</fingering></technical></notations></note><note><pitch><step>A</step><octave>4</octave></pitch><duration>1</duration><voice>1</voice><type>eighth</type><beam number="1">begin</beam><notations><technical><fingering>1</fingering></technical></notations></note><note><pitch><step>D</step><octave>5</octave></pitch><duration>1</duration><voice>1</voice><type>eighth</type><beam number="1">end</beam><notations><technical><fingering>2</fingering></technical></notations></note><note><pitch><step>F</step><alter>1</alter><octave>5</octave></pitch><duration>1</duration><voice>1</voice><type>eighth</type><beam number="1">begin</beam><notations><technical><fingering>4</fingering></technical></notations></note><note><pitch><step>D</step><octave>5</octave></pitch><duration>1</duration><voice>1</voice><type>eighth</type><beam number="1">continue</beam><notations><technical><fingering>1</fingering></technical></notations></note><note><pitch><step>F</step><alter>1</alter><octave>5</octave></pitch><duration>1</duration><voice>1</voice><type>eighth</type><beam number="1">continue</beam><notations><technical><fingering>2</fingering></technical></notations></note><note><pitch><step>A</step><octave>5</octave></pitch><duration>1</duration><voice>1</voice><type>eighth</type><beam number="1">end</beam><notations><technical><fingering>3</fingering></technical></notations></note></measure><measure number="33"><note><pitch><step>D</step><octave>6</octave></pitch><duration>6</duration><voice>1</voice><type>half</type><dot/><notations><technical><fingering>5</fingering></technical></notations></note><barline location="right"><bar-style>light-heavy</bar-style><repeat direction="backward"/></barline></measure></part><part id="bmml-p02"><measure number="1"><attributes><divisions>2</divisions><key><fifths>2</fifths></key><time symbol="common"><beats>4</beats><beat-type>4</beat-type></time><clef><sign>F</sign><line>4</line></clef></attributes><note><rest/><duration>2</duration><voice>1</voice><type>quarter</type></note></measure><measure number="2"><note><pitch><step>D</step><octave>3</octave></pitch><duration>2</duration><voice>1</voice><type>quarter</type><notations><technical><fingering>4</fingering></technical></notations></note><note><pitch><step>G</step><octave>3</octave></pitch><duration>2</duration><voice>1</voice><type>quarter</type><notations><technical><fingering>1</fingering></technical></notations></note><note><pitch><step>F</step><alter>1</alter><octave>3</octave></pitch><duration>2</duration><voice>1</voice><type>quarter</type></note><note><pitch><step>E</step><octave>3</octave></pitch><duration>2</duration><voice>1</voice><type>quarter</type></note></measure><measure number="3"><note><pitch><step>D</step><octave>3</octave></pitch><duration>2</duration><voice>1</voice><type>quarter</type></note><note><pitch><step>G</step><octave>3</octave></pitch><duration>2</duration><voice>1</voice><type>quarter</type></note><note><pitch><step>F</step><alter>1</alter><octave>3</octave></pitch><duration>2</duration><voice>1</voice><type>quarter</type></note><note><pitch><step>E</step><octave>3</octave></pitch><duration>2</duration><voice>1</voice><type>quarter</type></note></measure><measure number="4"><note><pitch><step>F</step><alter>1</alter><octave>3</octave></pitch><duration>2</duration><voice>1</voice><type>quarter</type><notations><technical><fingering>2</fingering></technical></notations></note><note><pitch><step>D</step><octave>3</octave></pitch><duration>2</duration><voice>1</voice><type>quarter</type><notations><technical><fingering>1</fingering></technical></notations></note><note><pitch><step>C</step><alter>1</alter><octave>3</octave></pitch><duration>2</duration><voice>1</voice><type>quarter</type><notations><technical><fingering>2</fingering></technical></notations></note><note><pitch><step>A</step><octave>2</octave></pitch><duration>2</duration><voice>1</voice><type>quarter</type><notations><technical><fingering>3</fingering></technical></notations></note></measure><measure number="5"><note><pitch><step>D</step><octave>2</octave></pitch><duration>2</duration><voice>1</voice><type>quarter</type><notations><technical><fingering>5</fingering></technical></notations></note><note><pitch><step>D</step><octave>3</octave></pitch><duration>1</duration><voice>1</voice><type>eighth</type><beam number="1">begin</beam><notations><technical><fingering>1</fingering></technical></notations></note><note><pitch><step>C</step><alter>1</alter><octave>3</octave></pitch><duration>1</duration><voice>1</voice><type>eighth</type><beam number="1">end</beam></note><note><pitch><step>D</step><octave>3</octave></pitch><duration>2</duration><voice>1</voice><type>quarter</type></note><note><pitch><step>D</step><octave>2</octave></pitch><duration>2</duration><voice>1</voice><type>quarter</type><notations><technical><fingering>4</fingering></technical></notations></note></measure><measure number="6"><note><pitch><step>D</step><octave>2</octave></pitch><duration>2</duration><voice>1</voice><type>quarter</type><notations><technical><fingering>5</fingering></technical></notations></note><note><pitch><step>D</step><octave>3</octave></pitch><duration>1</duration><voice>1</voice><type>eighth</type><beam number="1">begin</beam></note><note><pitch><step>C</step><alter>1</alter><octave>3</octave></pitch><duration>1</duration><voice>1</voice><type>eighth</type><beam number="1">end</beam></note><note><pitch><step>D</step><octave>3</octave></pitch><duration>2</duration><voice>1</voice><type>quarter</type></note><note><pitch><step>D</step><octave>2</octave></pitch><duration>2</duration><voice>1</voice><type>quarter</type><notations><technical><fingering>4</fingering></technical></notations></note></measure><measure number="7"><note><pitch><step>D</step><octave>2</octave></pitch><duration>2</duration><voice>1</voice><type>quarter</type><notations><technical><fingering>5</fingering></technical></notations></note><note><pitch><step>D</step><octave>3</octave></pitch><duration>1</duration><voice>1</voice><type>eighth</type><beam number="1">begin</beam></note><note><pitch><step>C</step><alter>1</alter><octave>3</octave></pitch><duration>1</duration><voice>1</voice><type>eighth</type><beam number="1">end</beam></note><note><pitch><step>D</step><octave>3</octave></pitch><duration>2</duration><voice>1</voice><type>quarter</type></note><note><pitch><step>D</step><octave>2</octave></pitch><duration>2</duration><voice>1</voice><type>quarter</type><notations><technical><fingering>5</fingering></technical></notations></note></measure><measure number="8"><note><pitch><step>C</step><alter>1</alter><octave>2</octave></pitch><duration>2</duration><voice>1</voice><type>quarter</type><notations><technical><fingering>4</fingering></technical></notations></note><note><pitch><step>F</step><alter>1</alter><octave>2</octave></pitch><duration>2</duration><voice>1</voice><type>quarter</type><notations><technical><fingering>2</fingering></technical></notations></note><note><pitch><step>D</step><octave>2</octave></pitch><duration>2</duration><voice>1</voice><type>quarter</type><notations><technical><fingering>5</fingering></technical></notations></note><note><pitch><step>E</step><octave>2</octave></pitch><duration>2</duration><voice>1</voice><type>quarter</type><notations><technical><fingering>3</fingering></technical></notations></note></measure><measure number="9"><note><pitch><step>A</step><octave>2</octave></pitch><duration>4</duration><voice>1</voice><type>half</type><notations><technical><fingering>1</fingering></technical></notations></note><note><pitch><step>A</step><octave>2</octave></pitch><duration>4</duration><voice>1</voice><type>half</type><notations><technical><fingering>3</fingering></technical></notations></note></measure><measure number="10"><direction><direction-type><words>None</words></direction-type></direction><note><pitch><step>A</step><octave>2</octave></pitch><duration>2</duration><voice>1</voice><type>quarter</type><notations><technical><fingering>5</fingering></technical></notations></note><note><pitch><step>E</step><octave>3</octave></pitch><duration>2</duration><voice>1</voice><type>quarter</type></note><note><pitch><step>A</step><octave>3</octave></pitch><duration>2</duration><voice>1</voice><type>quarter</type></note><note><rest/><duration>2</duration><voice>1</voice><type>quarter</type></note></measure><measure number="11"><note><pitch><step>D</step><octave>3</octave></pitch><duration>2</duration><voice>1</voice><type>quarter</type><notations><technical><fingering>4</fingering></technical></notations></note><note><pitch><step>G</step><octave>3</octave></pitch><duration>2</duration><voice>1</voice><type>quarter</type><notations><technical><fingering>1</fingering></technical></notations></note><note><pitch><step>F</step><alter>1</alter><octave>3</octave></pitch><duration>2</duration><voice>1</voice><type>quarter</type></note><note><pitch><step>E</step><octave>3</octave></pitch><duration>2</duration><voice>1</voice><type>quarter</type></note></measure><measure number="12"><note><pitch><step>D</step><octave>3</octave></pitch><duration>2</duration><voice>1</voice><type>quarter</type></note><note><pitch><step>G</step><octave>3</octave></pitch><duration>2</duration><voice>1</voice><type>quarter</type></note><note><pitch><step>F</step><alter>1</alter><octave>3</octave></pitch><duration>2</duration><voice>1</voice><type>quarter</type></note><note><pitch><step>E</step><octave>3</octave></pitch><duration>2</duration><voice>1</voice><type>quarter</type></note></measure><measure number="13"><note><pitch><step>F</step><alter>1</alter><octave>3</octave></pitch><duration>2</duration><voice>1</voice><type>quarter</type><notations><technical><fingering>2</fingering></technical></notations></note><note><pitch><step>D</step><octave>3</octave></pitch><duration>2</duration><voice>1</voice><type>quarter</type><notations><technical><fingering>1</fingering></technical></notations></note><note><pitch><step>C</step><alter>1</alter><octave>3</octave></pitch><duration>2</duration><voice>1</voice><type>quarter</type><notations><technical><fingering>2</fingering></technical></notations></note><note><pitch><step>A</step><octave>2</octave></pitch><duration>2</duration><voice>1</voice><type>quarter</type><notations><technical><fingering>3</fingering></technical></notations></note></measure><measure number="14"><note><pitch><step>D</step><octave>2</octave></pitch><duration>2</duration><voice>1</voice><type>quarter</type><notations><technical><fingering>5</fingering></technical></notations></note><note><pitch><step>D</step><octave>3</octave></pitch><duration>1</duration><voice>1</voice><type>eighth</type><beam number="1">begin</beam><notations><technical><fingering>1</fingering></technical></notations></note><note><pitch><step>C</step><alter>1</alter><octave>3</octave></pitch><duration>1</duration><voice>1</voice><type>eighth</type><beam number="1">end</beam></note><note><pitch><step>D</step><octave>3</octave></pitch><duration>2</duration><voice>1</voice><type>quarter</type></note><note><pitch><step>D</step><octave>2</octave></pitch><duration>2</duration><voice>1</voice><type>quarter</type><notations><technical><fingering>4</fingering></technical></notations></note></measure><measure number="15"><note><pitch><step>D</step><octave>2</octave></pitch><duration>2</duration><voice>1</voice><type>quarter</type><notations><technical><fingering>5</fingering></technical></notations></note><note><pitch><step>D</step><octave>3</octave></pitch><duration>1</duration><voice>1</voice><type>eighth</type><beam number="1">begin</beam></note><note><pitch><step>C</step><alter>1</alter><octave>3</octave></pitch><duration>1</duration><voice>1</voice><type>eighth</type><beam number="1">end</beam></note><note><pitch><step>D</step><octave>3</octave></pitch><duration>2</duration><voice>1</voice><type>quarter</type></note><note><pitch><step>D</step><octave>2</octave></pitch><duration>2</duration><voice>1</voice><type>quarter</type><notations><technical><fingering>4</fingering></technical></notations></note></measure><measure number="16"><note><pitch><step>D</step><octave>2</octave></pitch><duration>2</duration><voice>1</voice><type>quarter</type><notations><technical><fingering>5</fingering></technical></notations></note><note><pitch><step>D</step><octave>3</octave></pitch><duration>1</duration><voice>1</voice><type>eighth</type><beam number="1">begin</beam></note><note><pitch><step>C</step><alter>1</alter><octave>3</octave></pitch><duration>1</duration><voice>1</voice><type>eighth</type><beam number="1">end</beam></note><note><pitch><step>D</step><octave>3</octave></pitch><duration>2</duration><voice>1</voice><type>quarter</type></note><note><pitch><step>D</step><octave>2</octave></pitch><duration>2</duration><voice>1</voice><type>quarter</type><notations><technical><fingering>5</fingering></technical></notations></note></measure><measure number="17"><note><pitch><step>C</step><alter>1</alter><octave>2</octave></pitch><duration>2</duration><voice>1</voice><type>quarter</type><notations><technical><fingering>4</fingering></technical></notations></note><note><pitch><step>F</step><alter>1</alter><octave>2</octave></pitch><duration>2</duration><voice>1</voice><type>quarter</type><notations><technical><fingering>2</fingering></technical></notations></note><note><pitch><step>D</step><octave>2</octave></pitch><duration>2</duration><voice>1</voice><type>quarter</type><notations><technical><fingering>5</fingering></technical></notations></note><note><pitch><step>E</step><octave>2</octave></pitch><duration>2</duration><voice>1</voice><type>quarter</type><notations><technical><fingering>3</fingering></technical></notations></note></measure><measure number="18"><note><pitch><step>A</step><octave>2</octave></pitch><duration>4</duration><voice>1</voice><type>half</type><notations><technical><fingering>1</fingering></technical></notations></note><note><pitch><step>A</step><octave>2</octave></pitch><duration>4</duration><voice>1</voice><type>half</type><notations><technical><fingering>3</fingering></technical></notations></note></measure><measure number="19"><note><pitch><step>A</step><octave>2</octave></pitch><duration>2</duration><voice>1</voice><type>quarter</type><notations><technical><fingering>5</fingering></technical></notations></note><note><pitch><step>E</step><octave>3</octave></pitch><duration>2</duration><voice>1</voice><type>quarter</type></note><note><pitch><step>A</step><octave>3</octave></pitch><duration>2</duration><voice>1</voice><type>quarter</type></note><barline location="right"><bar-style>light-heavy</bar-style><repeat direction="backward"/></barline></measure><measure number="20"><barline location="left"><bar-style>heavy-light</bar-style><repeat direction="forward"/></barline><note><rest/><duration>2</duration><voice>1</voice><type>quarter</type></note></measure><measure number="21"><note><pitch><step>A</step><octave>3</octave></pitch><duration>2</duration><voice>1</voice><type>quarter</type><notations><technical><fingering>4</fingering></technical></notations></note><note><pitch><step>D</step><octave>4</octave></pitch><duration>2</duration><voice>1</voice><type>quarter</type><notations><technical><fingering>1</fingering></technical></notations></note><note><pitch><step>C</step><alter>1</alter><octave>4</octave></pitch><duration>2</duration><voice>1</voice><type>quarter</type></note><note><pitch><step>B</step><octave>3</octave></pitch><duration>2</duration><voice>1</voice><type>quarter</type></note></measure><measure number="22"><note><pitch><step>A</step><octave>3</octave></pitch><duration>2</duration><voice>1</voice><type>quarter</type></note><note><pitch><step>D</step><octave>4</octave></pitch><duration>2</duration><voice>1</voice><type>quarter</type></note><note><pitch><step>C</step><alter>1</alter><octave>4</octave></pitch><duration>2</duration><voice>1</voice><type>quarter</type></note><note><pitch><step>B</step><octave>3</octave></pitch><duration>2</duration><voice>1</voice><type>quarter</type></note></measure><measure number="23"><note><pitch><step>A</step><octave>3</octave></pitch><duration>2</duration><voice>1</voice><type>quarter</type><notations><technical><fingering>4</fingering></technical></notations></note><note><pitch><step>B</step><octave>3</octave></pitch><duration>2</duration><voice>1</voice><type>quarter</type><notations><technical><fingering>3</fingering></technical></notations></note><note><pitch><step>C</step><alter>1</alter><octave>4</octave></pitch><duration>2</duration><voice>1</voice><type>quarter</type><notations><technical><fingering>2</fingering></technical></notations></note><note><pitch><step>A</step><octave>3</octave></pitch><duration>2</duration><voice>1</voice><type>quarter</type><notations><technical><fingering>4</fingering></technical></notations></note></measure><measure number="24"><note><pitch><step>D</step><octave>4</octave></pitch><duration>2</duration><voice>1</voice><type>quarter</type><notations><technical><fingering>1</fingering></technical></notations></note><note><pitch><step>D</step><octave>3</octave></pitch><duration>1</duration><voice>1</voice><type>eighth</type><beam number="1">begin</beam><notations><technical><fingering>5</fingering></technical></notations></note><note><pitch><step>E</step><octave>3</octave></pitch><duration>1</duration><voice>1</voice><type>eighth</type><beam number="1">end</beam></note><note><pitch><step>F</step><alter>1</alter><octave>3</octave></pitch><duration>2</duration><voice>1</voice><type>quarter</type></note><note><pitch><step>D</step><octave>3</octave></pitch><duration>2</duration><voice>1</voice><type>quarter</type></note></measure><measure number="25"><note><pitch><step>G</step><octave>3</octave></pitch><duration>2</duration><voice>1</voice><type>quarter</type><notations><technical><fingering>1</fingering></technical></notations></note><note><rest/><duration>2</duration><voice>1</voice><type>quarter</type></note><note><rest/><duration>2</duration><voice>1</voice><type>quarter</type></note><note><pitch><step>G</step><alter>1</alter><octave>3</octave></pitch><duration>2</duration><voice>1</voice><type>quarter</type><accidental>sharp</accidental><notations><technical><fingering>2</fingering></technical></notations></note></measure><measure number="26"><note><pitch><step>A</step><octave>3</octave></pitch><duration>2</duration><voice>1</voice><type>quarter</type><notations><technical><fingering>1</fingering></technical></notations></note><note><rest/><duration>2</duration><voice>1</voice><type>quarter</type></note><note><rest/><duration>2</duration><voice>1</voice><type>quarter</type></note><note><pitch><step>A</step><alter>1</alter><octave>3</octave></pitch><duration>2</duration><voice>1</voice><type>quarter</type><accidental>sharp</accidental><notations><technical><fingering>2</fingering></technical></notations></note></measure><measure number="27"><note><pitch><step>B</step><octave>3</octave></pitch><duration>2</duration><voice>1</voice><type>quarter</type><notations><technical><fingering>1</fingering></technical></notations></note><note><pitch><step>G</step><octave>3</octave></pitch><duration>2</duration><voice>1</voice><type>quarter</type><notations><technical><fingering>2</fingering></technical></notations></note><note><pitch><step>E</step><octave>3</octave></pitch><duration>2</duration><voice>1</voice><type>quarter</type><notations><technical><fingering>4</fingering></technical></notations></note><note><pitch><step>G</step><octave>3</octave></pitch><duration>2</duration><voice>1</voice><type>quarter</type><notations><technical><fingering>2</fingering></technical></notations></note></measure><measure number="28"><note><pitch><step>A</step><alter>0</alter><octave>3</octave></pitch><duration>1</duration><voice>1</voice><type>eighth</type><accidental>natural</accidental><beam number="1">begin</beam><notations><technical><fingering>1</fingering></technical></notations></note><note><pitch><step>A</step><octave>2</octave></pitch><duration>1</duration><voice>1</voice><type>eighth</type><beam number="1">continue</beam><notations><technical><fingering>5</fingering></technical></notations></note><note><pitch><step>A</step><octave>3</octave></pitch><duration>1</duration><voice>1</voice><type>eighth</type><beam number="1">continue</beam><notations><technical><fingering>1</fingering></technical></notations></note><note><pitch><step>G</step><octave>3</octave></pitch><duration>1</duration><voice>1</voice><type>eighth</type><beam number="1">end</beam><notations><technical><fingering>2</fingering></technical></notations></note><note><pitch><step>F</step><alter>1</alter><octave>3</octave></pitch><duration>1</duration><voice>1</voice><type>eighth</type><beam number="1">begin</beam><notations><technical><fingering>3</fingering></technical></notations></note><note><pitch><step>E</step><octave>3</octave></pitch><duration>1</duration><voice>1</voice><type>eighth</type><beam number="1">continue</beam><notations><technical><fingering>4</fingering></technical></notations></note><note><pitch><step>F</step><alter>1</alter><octave>3</octave></pitch><duration>1</duration><voice>1</voice><type>eighth</type><beam number="1">continue</beam><notations><technical><fingering>2</fingering></technical></notations></note><note><pitch><step>D</step><octave>3</octave></pitch><duration>1</duration><voice>1</voice><type>eighth</type><beam number="1">end</beam><notations><technical><fingering>3</fingering></technical></notations></note></measure><measure number="29"><note><pitch><step>G</step><octave>2</octave></pitch><duration>2</duration><voice>1</voice><type>quarter</type><notations><technical><fingering>5</fingering></technical></notations></note><note><rest/><duration>2</duration><voice>1</voice><type>quarter</type></note><note><rest/><duration>2</duration><voice>1</voice><type>quarter</type></note><note><pitch><step>G</step><octave>3</octave></pitch><duration>2</duration><voice>1</voice><type>quarter</type><notations><technical><fingering>2</fingering></technical></notations></note></measure><measure number="30"><note><pitch><step>A</step><octave>3</octave></pitch><duration>2</duration><voice>1</voice><type>quarter</type><notations><technical><fingering>1</fingering></technical></notations></note><note><rest/><duration>2</duration><voice>1</voice><type>quarter</type></note><note><rest/><duration>2</duration><voice>1</voice><type>quarter</type></note><note><pitch><step>G</step><octave>3</octave></pitch><duration>2</duration><voice>1</voice><type>quarter</type><notations><technical><fingering>3</fingering></technical></notations></note></measure><measure number="31"><note><pitch><step>F</step><alter>1</alter><octave>3</octave></pitch><duration>2</duration><voice>1</voice><type>quarter</type><notations><technical><fingering>4</fingering></technical></notations></note><note><pitch><step>B</step><octave>3</octave></pitch><duration>2</duration><voice>1</voice><type>quarter</type><notations><technical><fingering>1</fingering></technical></notations></note><note><pitch><step>G</step><octave>3</octave></pitch><duration>2</duration><voice>1</voice><type>quarter</type><notations><technical><fingering>3</fingering></technical></notations></note><note><pitch><step>A</step><octave>3</octave></pitch><duration>2</duration><voice>1</voice><type>quarter</type><notations><technical><fingering>2</fingering></technical></notations></note></measure><measure number="32"><note><pitch><step>D</step><octave>3</octave></pitch><duration>4</duration><voice>1</voice><type>half</type><notations><technical><fingering>5</fingering></technical></notations></note><note><pitch><step>D</step><octave>3</octave></pitch><duration>4</duration><voice>1</voice><type>half</type><notations><technical><fingering>1</fingering></technical></notations></note></measure><measure number="33"><note><pitch><step>D</step><octave>2</octave></pitch><duration>2</duration><voice>1</voice><type>quarter</type><notations><technical><fingering>5</fingering></technical></notations></note><note><pitch><step>A</step><octave>2</octave></pitch><duration>2</duration><voice>1</voice><type>quarter</type></note><note><pitch><step>D</step><octave>3</octave></pitch><duration>2</duration><voice>1</voice><type>quarter</type></note><barline location="right"><bar-style>light-heavy</bar-style><repeat direction="backward"/></barline></measure></part></score-partwise>