<?xml version="1.0" encoding="UTF-8"?>
<!DOCTYPE score-partwise PUBLIC "-//Recordare//DTD MusicXML 4.0 Partwise//EN" "http://www.musicxml.org/dtds/partwise.dtd">
<score-partwise version="4.0">
  <identification>
    <encoding>
      <software>MuseScore 4.0.2</software>
      <encoding-date>2023-06-06</encoding-date>
      <supports element="accidental" type="yes"/>
      <supports element="beam" type="yes"/>
      <supports element="print" attribute="new-page" type="no"/>
      <supports element="print" attribute="new-system" type="no"/>
      <supports element="stem" type="yes"/>
      </encoding>
    </identification>
  <part-list>
    <score-part id="P1">
      <part-name>Soprano/Alto</part-name>
      <part-abbreviation>S/A</part-abbreviation>
      <score-instrument id="P1-I1">
        <instrument-name>Voice</instrument-name>
        </score-instrument>
      <midi-device id="P1-I1" port="1"></midi-device>
      <midi-instrument id="P1-I1">
        <midi-channel>1</midi-channel>
        <midi-program>53</midi-program>
        <volume>78.7402</volume>
        <pan>0</pan>
        </midi-instrument>
      </score-part>
    <score-part id="P2">
      <part-name>Tenor/Bass</part-name>
      <part-abbreviation>T/B</part-abbreviation>
      <score-instrument id="P2-I1">
        <instrument-name>Voice</instrument-name>
        </score-instrument>
      <midi-device id="P2-I1" port="1"></midi-device>
      <midi-instrument id="P2-I1">
        <midi-channel>2</midi-channel>
        <midi-program>53</midi-program>
        <volume>78.7402</volume>
        <pan>0</pan>
        </midi-instrument>
      </score-part>
    </part-list>
  <part id="P1">
    <measure number="1">
      <attributes>
        <divisions>12</divisions>
        <key>
          <fifths>-4</fifths>
          <mode>major</mode>
          </key>
        <time>
          <beats>3</beats>
          <beat-type>4</beat-type>
          </time>
        <clef>
          <sign>G</sign>
          <line>2</line>
          </clef>
        </attributes>
      <direction placement="above">
        <direction-type>
          <metronome parentheses="no">
            <beat-unit>quarter</beat-unit>
            <per-minute>80</per-minute>
            </metronome>
          </direction-type>
        <sound tempo="80"/>
        </direction>
      <note>
        <pitch>
          <step>E</step>
          <alter>-1</alter>
          <octave>4</octave>
          </pitch>
        <duration>6</duration>
        <voice>1</voice>
        <type>eighth</type>
        <stem>up</stem>
        <beam number="1">begin</beam>
        <lyric number="1">
          <syllabic>begin</syllabic>
          <text font-family="FreeSerif" font-size="11">1. A</text>
          </lyric>
        <lyric number="2">
          <syllabic>single</syllabic>
          <text font-family="FreeSerif">2. 'T was</text>
          </lyric>
        <lyric number="3">
          <syllabic>single</syllabic>
          <text font-family="FreeSerif" font-size="11">3. Throug</text>
          <extend/>
          </lyric>
        <lyric number="4">
          <syllabic>single</syllabic>
          <text font-family="FreeSerif">4. The</text>
          <extend/>
          </lyric>
        <lyric number="5">
          <syllabic>begin</syllabic>
          <text font-family="FreeSerif" font-size="11">5. A</text>
          </lyric>
        <lyric number="6">
          <syllabic>single</syllabic>
          <text font-family="FreeSerif">6. Yes,</text>
          <extend/>
          </lyric>
        <lyric number="7">
          <syllabic>single</syllabic>
          <text font-family="FreeSerif" font-size="11">7. The</text>
          <extend/>
          </lyric>
        <lyric number="8">
          <syllabic>single</syllabic>
          <text font-family="FreeSerif">8. When</text>
          <extend/>
          </lyric>
        </note>
      <note>
        <pitch>
          <step>F</step>
          <octave>4</octave>
          </pitch>
        <duration>6</duration>
        <voice>1</voice>
        <type>eighth</type>
        <stem>up</stem>
        <beam number="1">end</beam>
        </note>
      <backup>
        <duration>12</duration>
        </backup>
      <note>
        <pitch>
          <step>C</step>
          <octave>4</octave>
          </pitch>
        <duration>6</duration>
        <voice>2</voice>
        <type>eighth</type>
        <stem>down</stem>
        <beam number="1">begin</beam>
        </note>
      <note>
        <pitch>
          <step>D</step>
          <alter>-1</alter>
          <octave>4</octave>
          </pitch>
        <duration>6</duration>
        <voice>2</voice>
        <type>eighth</type>
        <stem>down</stem>
        <beam number="1">end</beam>
        </note>
      </measure>
    <measure number="2">
      <note>
        <pitch>
          <step>A</step>
          <alter>-1</alter>
          <octave>4</octave>
          </pitch>
        <duration>24</duration>
        <voice>1</voice>
        <type>half</type>
        <stem>up</stem>
        <notations>
          <fermata type="upright"/>
          </notations>
        <lyric number="1">
          <syllabic>middle</syllabic>
          <text font-family="FreeSerif" font-size="11">ma</text>
          </lyric>
        <lyric number="2">
          <syllabic>single</syllabic>
          <text font-family="FreeSerif">grace</text>
          </lyric>
        <lyric number="3">
          <syllabic>begin</syllabic>
          <text font-family="FreeSerif" font-size="11">man</text>
          </lyric>
        <lyric number="4">
          <syllabic>single</syllabic>
          <text font-family="FreeSerif">Lord</text>
          </lyric>
        <lyric number="5">
          <syllabic>middle</syllabic>
          <text font-family="FreeSerif" font-size="11">ma</text>
          </lyric>
        <lyric number="6">
          <syllabic>single</syllabic>
          <text font-family="FreeSerif">when</text>
          </lyric>
        <lyric number="7">
          <syllabic>single</syllabic>
          <text font-family="FreeSerif" font-size="11">earth</text>
          </lyric>
        <lyric number="8">
          <syllabic>single</syllabic>
          <text font-family="FreeSerif">we 've</text>
          </lyric>
        </note>
      <note>
        <pitch>
          <step>C</step>
          <octave>5</octave>
          </pitch>
        <duration>6</duration>
        <voice>1</voice>
        <type>eighth</type>
        <stem>up</stem>
        <beam number="1">begin</beam>
        </note>
      <note>
        <pitch>
          <step>A</step>
          <alter>-1</alter>
          <octave>4</octave>
          </pitch>
        <duration>6</duration>
        <voice>1</voice>
        <type>eighth</type>
        <stem>up</stem>
        <beam number="1">end</beam>
        </note>
      <backup>
        <duration>36</duration>
        </backup>
      <note>
        <pitch>
          <step>C</step>
          <octave>4</octave>
          </pitch>
        <duration>24</duration>
        <voice>2</voice>
        <type>half</type>
        <stem>down</stem>
        </note>
      <note>
        <pitch>
          <step>E</step>
          <alter>-1</alter>
          <octave>4</octave>
          </pitch>
        <duration>6</duration>
        <voice>2</voice>
        <type>eighth</type>
        <stem>down</stem>
        <beam number="1">begin</beam>
        </note>
      <note>
        <pitch>
          <step>C</step>
          <octave>4</octave>
          </pitch>
        <duration>6</duration>
        <voice>2</voice>
        <type>eighth</type>
        <stem>down</stem>
        <beam number="1">end</beam>
        </note>
      </measure>
    <measure number="3">
      <note>
        <pitch>
          <step>C</step>
          <octave>5</octave>
          </pitch>
        <duration>24</duration>
        <voice>1</voice>
        <type>half</type>
        <stem>up</stem>
        <lyric number="1">
          <syllabic>single</syllabic>
          <text font-family="FreeSerif" font-size="11">grace!</text>
          </lyric>
        <lyric number="2">
          <syllabic>single</syllabic>
          <text font-family="FreeSerif">taught</text>
          </lyric>
        <lyric number="3">
          <syllabic>begin</syllabic>
          <text font-family="FreeSerif" font-size="11">dan</text>
          </lyric>
        <lyric number="4">
          <syllabic>begin</syllabic>
          <text font-family="FreeSerif">pro</text>
          </lyric>
        <lyric number="5">
          <syllabic>single</syllabic>
          <text font-family="FreeSerif" font-size="11">grace!</text>
          </lyric>
        <lyric number="6">
          <syllabic>single</syllabic>
          <text font-family="FreeSerif">flesh</text>
          </lyric>
        <lyric number="7">
          <syllabic>single</syllabic>
          <text font-family="FreeSerif" font-size="11">soon</text>
          </lyric>
        <lyric number="8">
          <syllabic>single</syllabic>
          <text font-family="FreeSerif">there</text>
          </lyric>
        </note>
      <note>
        <pitch>
          <step>B</step>
          <alter>-1</alter>
          <octave>4</octave>
          </pitch>
        <duration>12</duration>
        <voice>1</voice>
        <type>quarter</type>
        <stem>up</stem>
        <lyric number="1">
          <syllabic>single</syllabic>
          <text font-family="FreeSerif" font-size="11">how</text>
          </lyric>
        <lyric number="2">
          <syllabic>single</syllabic>
          <text font-family="FreeSerif">my</text>
          </lyric>
        <lyric number="3">
          <syllabic>end</syllabic>
          <text font-family="FreeSerif" font-size="11">gers,</text>
          </lyric>
        <lyric number="4">
          <syllabic>end</syllabic>
          <text font-family="FreeSerif">mised</text>
          </lyric>
        <lyric number="5">
          <syllabic>single</syllabic>
          <text font-family="FreeSerif" font-size="11">how</text>
          </lyric>
        <lyric number="6">
          <syllabic>single</syllabic>
          <text font-family="FreeSerif">and</text>
          </lyric>
        <lyric number="7">
          <syllabic>begin</syllabic>
          <text font-family="FreeSerif" font-size="11">dis</text>
          </lyric>
        <lyric number="8">
          <syllabic>single</syllabic>
          <text font-family="FreeSerif">ten</text>
          </lyric>
        </note>
      <backup>
        <duration>36</duration>
        </backup>
      <note>
        <pitch>
          <step>E</step>
          <alter>-1</alter>
          <octave>4</octave>
          </pitch>
        <duration>24</duration>
        <voice>2</voice>
        <type>half</type>
        <stem>down</stem>
        </note>
      <note>
        <pitch>
          <step>D</step>
          <alter>-1</alter>
          <octave>4</octave>
          </pitch>
        <duration>12</duration>
        <voice>2</voice>
        <type>quarter</type>
        <stem>down</stem>
        </note>
      </measure>
    <measure number="4">
      <note>
        <pitch>
          <step>A</step>
          <alter>-1</alter>
          <octave>4</octave>
          </pitch>
        <duration>24</duration>
        <voice>1</voice>
        <type>half</type>
        <stem>up</stem>
        <lyric number="1">
          <syllabic>single</syllabic>
          <text font-family="FreeSerif" font-size="11">sweet</text>
          </lyric>
        <lyric number="2">
          <syllabic>single</syllabic>
          <text font-family="FreeSerif">heart</text>
          </lyric>
        <lyric number="3">
          <syllabic>single</syllabic>
          <text font-family="FreeSerif" font-size="11">toils</text>
          </lyric>
        <lyric number="4">
          <syllabic>single</syllabic>
          <text font-family="FreeSerif">good</text>
          </lyric>
        <lyric number="5">
          <syllabic>single</syllabic>
          <text font-family="FreeSerif" font-size="11">sweet</text>
          </lyric>
        <lyric number="6">
          <syllabic>single</syllabic>
          <text font-family="FreeSerif">heart</text>
          </lyric>
        <lyric number="7">
          <syllabic>end</syllabic>
          <text font-family="FreeSerif" font-size="11">solve</text>
          </lyric>
        <lyric number="8">
          <syllabic>begin</syllabic>
          <text font-family="FreeSerif">thou</text>
          </lyric>
        </note>
      <note>
        <pitch>
          <step>F</step>
          <octave>4</octave>
          </pitch>
        <duration>12</duration>
        <voice>1</voice>
        <type>quarter</type>
        <stem>up</stem>
        <lyric number="1">
          <syllabic>single</syllabic>
          <text font-family="FreeSerif" font-size="11">the</text>
          </lyric>
        <lyric number="2">
          <syllabic>single</syllabic>
          <text font-family="FreeSerif">to</text>
          </lyric>
        <lyric number="3">
          <syllabic>single</syllabic>
          <text font-family="FreeSerif" font-size="11">and</text>
          </lyric>
        <lyric number="4">
          <syllabic>single</syllabic>
          <text font-family="FreeSerif">to</text>
          </lyric>
        <lyric number="5">
          <syllabic>single</syllabic>
          <text font-family="FreeSerif" font-size="11">the</text>
          </lyric>
        <lyric number="6">
          <syllabic>single</syllabic>
          <text font-family="FreeSerif">shall</text>
          </lyric>
        <lyric number="7">
          <syllabic>single</syllabic>
          <text font-family="FreeSerif" font-size="11">like</text>
          </lyric>
        <lyric number="8">
          <syllabic>end</syllabic>
          <text font-family="FreeSerif">sand</text>
          </lyric>
        </note>
      <backup>
        <duration>36</duration>
        </backup>
      <note>
        <pitch>
          <step>C</step>
          <octave>4</octave>
          </pitch>
        <duration>24</duration>
        <voice>2</voice>
        <type>half</type>
        <stem>down</stem>
        </note>
      <note>
        <pitch>
          <step>D</step>
          <alter>-1</alter>
          <octave>4</octave>
          </pitch>
        <duration>12</duration>
        <voice>2</voice>
        <type>quarter</type>
        <stem>down</stem>
        </note>
      </measure>
    <measure number="5">
      <note>
        <pitch>
          <step>E</step>
          <alter>-1</alter>
          <octave>4</octave>
          </pitch>
        <duration>24</duration>
        <voice>1</voice>
        <type>half</type>
        <stem>up</stem>
        <lyric number="1">
          <syllabic>single</syllabic>
          <text font-family="FreeSerif" font-size="11">sound!</text>
          </lyric>
        <lyric number="2">
          <syllabic>single</syllabic>
          <text font-family="FreeSerif">fear,</text>
          </lyric>
        <lyric number="3">
          <syllabic>single</syllabic>
          <text font-family="FreeSerif" font-size="11">snares</text>
          </lyric>
        <lyric number="4">
          <syllabic>single</syllabic>
          <text font-family="FreeSerif">me,</text>
          </lyric>
        <lyric number="5">
          <syllabic>single</syllabic>
          <text font-family="FreeSerif" font-size="11">sound!</text>
          </lyric>
        <lyric number="6">
          <syllabic>single</syllabic>
          <text font-family="FreeSerif">fail,</text>
          </lyric>
        <lyric number="7">
          <syllabic>single</syllabic>
          <text font-family="FreeSerif" font-size="11">snow,</text>
          </lyric>
        <lyric number="8">
          <syllabic>single</syllabic>
          <text font-family="FreeSerif">years,</text>
          </lyric>
        </note>
      <note>
        <pitch>
          <step>E</step>
          <alter>-1</alter>
          <octave>4</octave>
          </pitch>
        <duration>6</duration>
        <voice>1</voice>
        <type>eighth</type>
        <stem>up</stem>
        <beam number="1">begin</beam>
        <lyric number="1">
          <syllabic>single</syllabic>
          <text font-family="FreeSerif" font-size="11">That</text>
          <extend/>
          </lyric>
        <lyric number="2">
          <syllabic>single</syllabic>
          <text font-family="FreeSerif">And</text>
          <extend/>
          </lyric>
        <lyric number="3">
          <syllabic>single</syllabic>
          <text font-family="FreeSerif" font-size="11">I</text>
          <extend/>
          </lyric>
        <lyric number="4">
          <syllabic>single</syllabic>
          <text font-family="FreeSerif">His</text>
          <extend/>
          </lyric>
        <lyric number="5">
          <syllabic>single</syllabic>
          <text font-family="FreeSerif" font-size="11">That</text>
          <extend/>
          </lyric>
        <lyric number="6">
          <syllabic>single</syllabic>
          <text font-family="FreeSerif">And</text>
          <extend/>
          </lyric>
        <lyric number="7">
          <syllabic>single</syllabic>
          <text font-family="FreeSerif" font-size="11">The</text>
          <extend/>
          </lyric>
        <lyric number="8">
          <syllabic>single</syllabic>
          <text font-family="FreeSerif">Bright</text>
          <extend/>
          </lyric>
        </note>
      <note>
        <pitch>
          <step>F</step>
          <octave>4</octave>
          </pitch>
        <duration>6</duration>
        <voice>1</voice>
        <type>eighth</type>
        <stem>up</stem>
        <beam number="1">end</beam>
        </note>
      <backup>
        <duration>36</duration>
        </backup>
      <note>
        <pitch>
          <step>C</step>
          <octave>4</octave>
          </pitch>
        <duration>24</duration>
        <voice>2</voice>
        <type>half</type>
        <stem>down</stem>
        </note>
      <note>
        <pitch>
          <step>C</step>
          <octave>4</octave>
          </pitch>
        <duration>6</duration>
        <voice>2</voice>
        <type>eighth</type>
        <stem>down</stem>
        <beam number="1">begin</beam>
        </note>
      <note>
        <pitch>
          <step>D</step>
          <alter>-1</alter>
          <octave>4</octave>
          </pitch>
        <duration>6</duration>
        <voice>2</voice>
        <type>eighth</type>
        <stem>down</stem>
        <beam number="1">end</beam>
        </note>
      </measure>
    <measure number="6">
      <print new-system="yes"/>
      <note>
        <pitch>
          <step>A</step>
          <alter>-1</alter>
          <octave>4</octave>
          </pitch>
        <duration>24</duration>
        <voice>1</voice>
        <type>half</type>
        <stem>up</stem>
        <lyric number="1">
          <syllabic>single</syllabic>
          <text font-family="FreeSerif" font-size="11">saved</text>
          </lyric>
        <lyric number="2">
          <syllabic>single</syllabic>
          <text font-family="FreeSerif">grace</text>
          </lyric>
        <lyric number="3">
          <syllabic>single</syllabic>
          <text font-family="FreeSerif" font-size="11">have</text>
          </lyric>
        <lyric number="4">
          <syllabic>single</syllabic>
          <text font-family="FreeSerif">word</text>
          </lyric>
        <lyric number="5">
          <syllabic>single</syllabic>
          <text font-family="FreeSerif" font-size="11">saved</text>
          </lyric>
        <lyric number="6">
          <syllabic>begin</syllabic>
          <text font-family="FreeSerif">mor</text>
          </lyric>
        <lyric number="7">
          <syllabic>single</syllabic>
          <text font-family="FreeSerif" font-size="11">sun</text>
          </lyric>
        <lyric number="8">
          <syllabic>begin</syllabic>
          <text font-family="FreeSerif">shi</text>
          </lyric>
        </note>
      <note>
        <pitch>
          <step>C</step>
          <octave>5</octave>
          </pitch>
        <duration>4</duration>
        <voice>1</voice>
        <type>eighth</type>
        <time-modification>
          <actual-notes>3</actual-notes>
          <normal-notes>2</normal-notes>
          </time-modification>
        <stem>up</stem>
        <beam number="1">begin</beam>
        <notations>
          <tuplet type="start" bracket="no"/>
          </notations>
        <lyric number="1">
          <syllabic>single</syllabic>
          <text font-family="FreeSerif" font-size="11">a</text>
          <extend/>
          </lyric>
        <lyric number="2">
          <syllabic>single</syllabic>
          <text font-family="FreeSerif">my</text>
          <extend/>
          </lyric>
        <lyric number="3">
          <syllabic>begin</syllabic>
          <text font-family="FreeSerif" font-size="11">al</text>
          </lyric>
        <lyric number="4">
          <syllabic>single</syllabic>
          <text font-family="FreeSerif">my</text>
          <extend/>
          </lyric>
        <lyric number="5">
          <syllabic>single</syllabic>
          <text font-family="FreeSerif" font-size="11">a</text>
          <extend/>
          </lyric>
        <lyric number="6">
          <syllabic>end</syllabic>
          <text font-family="FreeSerif">tal</text>
          <extend/>
          </lyric>
        <lyric number="7">
          <syllabic>begin</syllabic>
          <text font-family="FreeSerif" font-size="11">for</text>
          </lyric>
        <lyric number="8">
          <syllabic>end</syllabic>
          <text font-family="FreeSerif">ning</text>
          <extend/>
          </lyric>
        </note>
      <note>
        <pitch>
          <step>B</step>
          <alter>-1</alter>
          <octave>4</octave>
          </pitch>
        <duration>4</duration>
        <voice>1</voice>
        <type>eighth</type>
        <time-modification>
          <actual-notes>3</actual-notes>
          <normal-notes>2</normal-notes>
          </time-modification>
        <stem>up</stem>
        <beam number="1">continue</beam>
        </note>
      <note>
        <pitch>
          <step>A</step>
          <alter>-1</alter>
          <octave>4</octave>
          </pitch>
        <duration>4</duration>
        <voice>1</voice>
        <type>eighth</type>
        <time-modification>
          <actual-notes>3</actual-notes>
          <normal-notes>2</normal-notes>
          </time-modification>
        <stem>up</stem>
        <beam number="1">end</beam>
        <notations>
          <tuplet type="stop"/>
          </notations>
        </note>
      <backup>
        <duration>36</duration>
        </backup>
      <note>
        <pitch>
          <step>C</step>
          <octave>4</octave>
          </pitch>
        <duration>24</duration>
        <voice>2</voice>
        <type>half</type>
        <stem>down</stem>
        </note>
      <note>
        <pitch>
          <step>E</step>
          <alter>-1</alter>
          <octave>4</octave>
          </pitch>
        <duration>12</duration>
        <voice>2</voice>
        <type>quarter</type>
        <stem>down</stem>
        </note>
      </measure>
    <measure number="7">
      <note>
        <pitch>
          <step>C</step>
          <octave>5</octave>
          </pitch>
        <duration>24</duration>
        <voice>1</voice>
        <type>half</type>
        <stem>up</stem>
        <lyric number="1">
          <syllabic>single</syllabic>
          <text font-family="FreeSerif" font-size="11">wretch</text>
          </lyric>
        <lyric number="2">
          <syllabic>single</syllabic>
          <text font-family="FreeSerif">fears</text>
          </lyric>
        <lyric number="3">
          <syllabic>middle</syllabic>
          <text font-family="FreeSerif" font-size="11">read</text>
          </lyric>
        <lyric number="4">
          <syllabic>single</syllabic>
          <text font-family="FreeSerif">hope</text>
          </lyric>
        <lyric number="5">
          <syllabic>single</syllabic>
          <text font-family="FreeSerif" font-size="11">wretch</text>
          </lyric>
        <lyric number="6">
          <syllabic>single</syllabic>
          <text font-family="FreeSerif">lief</text>
          </lyric>
        <lyric number="7">
          <syllabic>end</syllabic>
          <text font-family="FreeSerif" font-size="11">bear</text>
          </lyric>
        <lyric number="8">
          <syllabic>single</syllabic>
          <text font-family="FreeSerif">as</text>
          </lyric>
        </note>
      <note>
        <pitch>
          <step>B</step>
          <alter>-1</alter>
          <octave>4</octave>
          </pitch>
        <duration>6</duration>
        <voice>1</voice>
        <type>eighth</type>
        <stem>up</stem>
        <beam number="1">begin</beam>
        <lyric number="1">
          <syllabic>single</syllabic>
          <text font-family="FreeSerif" font-size="11">like</text>
          <extend/>
          </lyric>
        <lyric number="2">
          <syllabic>begin</syllabic>
          <text font-family="FreeSerif">re</text>
          </lyric>
        <lyric number="3">
          <syllabic>end</syllabic>
          <text font-family="FreeSerif" font-size="11">y</text>
          <extend/>
          </lyric>
        <lyric number="4">
          <syllabic>begin</syllabic>
          <text font-family="FreeSerif">se</text>
          </lyric>
        <lyric number="5">
          <syllabic>single</syllabic>
          <text font-family="FreeSerif" font-size="11">like</text>
          <extend/>
          </lyric>
        <lyric number="6">
          <syllabic>single</syllabic>
          <text font-family="FreeSerif">shall</text>
          <extend/>
          </lyric>
        <lyric number="7">
          <syllabic>single</syllabic>
          <text font-family="FreeSerif" font-size="11">to</text>
          <extend/>
          </lyric>
        <lyric number="8">
          <syllabic>single</syllabic>
          <text font-family="FreeSerif">the</text>
          <extend/>
          </lyric>
        </note>
      <note>
        <pitch>
          <step>C</step>
          <octave>5</octave>
          </pitch>
        <duration>6</duration>
        <voice>1</voice>
        <type>eighth</type>
        <stem>up</stem>
        <beam number="1">end</beam>
        </note>
      <backup>
        <duration>36</duration>
        </backup>
      <note>
        <pitch>
          <step>A</step>
          <alter>-1</alter>
          <octave>4</octave>
          </pitch>
        <duration>24</duration>
        <voice>2</voice>
        <type>half</type>
        <stem>down</stem>
        </note>
      <note>
        <pitch>
          <step>A</step>
          <alter>-1</alter>
          <octave>4</octave>
          </pitch>
        <duration>12</duration>
        <voice>2</voice>
        <type>quarter</type>
        <stem>down</stem>
        </note>
      </measure>
    <measure number="8">
      <note>
        <pitch>
          <step>E</step>
          <alter>-1</alter>
          <octave>5</octave>
          </pitch>
        <duration>36</duration>
        <tie type="start"/>
        <voice>1</voice>
        <type>half</type>
        <dot/>
        <stem>up</stem>
        <notations>
          <tied type="start"/>
          </notations>
        <lyric number="1">
          <syllabic>single</syllabic>
          <text font-family="FreeSerif" font-size="11">me!</text>
          <extend/>
          </lyric>
        <lyric number="2">
          <syllabic>end</syllabic>
          <text font-family="FreeSerif">liev'd.</text>
          <extend/>
          </lyric>
        <lyric number="3">
          <syllabic>single</syllabic>
          <text font-family="FreeSerif" font-size="11">come.</text>
          <extend/>
          </lyric>
        <lyric number="4">
          <syllabic>end</syllabic>
          <text font-family="FreeSerif">cures;</text>
          <extend/>
          </lyric>
        <lyric number="5">
          <syllabic>single</syllabic>
          <text font-family="FreeSerif" font-size="11">me!</text>
          <extend/>
          </lyric>
        <lyric number="6">
          <syllabic>single</syllabic>
          <text font-family="FreeSerif">cease;</text>
          <extend/>
          </lyric>
        <lyric number="7">
          <syllabic>single</syllabic>
          <text font-family="FreeSerif" font-size="11">shine;</text>
          <extend/>
          </lyric>
        <lyric number="8">
          <syllabic>single</syllabic>
          <text font-family="FreeSerif">sun,</text>
          <extend/>
          </lyric>
        </note>
      <backup>
        <duration>36</duration>
        </backup>
      <note>
        <pitch>
          <step>B</step>
          <alter>-1</alter>
          <octave>4</octave>
          </pitch>
        <duration>12</duration>
        <voice>2</voice>
        <type>quarter</type>
        <stem>down</stem>
        <notations>
          <slur type="start" placement="below" number="1"/>
          </notations>
        </note>
      <note>
        <pitch>
          <step>E</step>
          <alter>-1</alter>
          <octave>4</octave>
          </pitch>
        <duration>12</duration>
        <voice>2</voice>
        <type>quarter</type>
        <stem>down</stem>
        </note>
      <note>
        <pitch>
          <step>D</step>
          <octave>4</octave>
          </pitch>
        <duration>12</duration>
        <voice>2</voice>
        <type>quarter</type>
        <accidental>natural</accidental>
        <stem>down</stem>
        <notations>
          <slur type="stop" number="1"/>
          </notations>
        </note>
      </measure>
    <measure number="9">
      <note>
        <pitch>
          <step>E</step>
          <alter>-1</alter>
          <octave>5</octave>
          </pitch>
        <duration>24</duration>
        <tie type="stop"/>
        <voice>1</voice>
        <type>half</type>
        <stem>up</stem>
        <notations>
          <tied type="stop"/>
          <articulations>
            <breath-mark/>
            </articulations>
          </notations>
        </note>
      <note>
        <pitch>
          <step>C</step>
          <octave>5</octave>
          </pitch>
        <duration>6</duration>
        <voice>1</voice>
        <type>eighth</type>
        <stem>up</stem>
        <beam number="1">begin</beam>
        <lyric number="1">
          <syllabic>single</syllabic>
          <text font-family="FreeSerif" font-size="11">I</text>
          <extend/>
          </lyric>
        <lyric number="2">
          <syllabic>single</syllabic>
          <text font-family="FreeSerif">How</text>
          <extend/>
          </lyric>
        <lyric number="3">
          <syllabic>begin</syllabic>
          <text font-family="FreeSerif" font-size="11">'T is</text>
          </lyric>
        <lyric number="4">
          <syllabic>single</syllabic>
          <text font-family="FreeSerif">He</text>
          <extend/>
          </lyric>
        <lyric number="5">
          <syllabic>single</syllabic>
          <text font-family="FreeSerif" font-size="11">I</text>
          <extend/>
          </lyric>
        <lyric number="6">
          <syllabic>single</syllabic>
          <text font-family="FreeSerif">I</text>
          <extend/>
          </lyric>
        <lyric number="7">
          <syllabic>single</syllabic>
          <text font-family="FreeSerif" font-size="11">But</text>
          <extend/>
          </lyric>
        <lyric number="8">
          <syllabic>single</syllabic>
          <text font-family="FreeSerif">We 've</text>
          <extend/>
          </lyric>
        </note>
      <note>
        <pitch>
          <step>E</step>
          <alter>-1</alter>
          <octave>5</octave>
          </pitch>
        <duration>6</duration>
        <voice>1</voice>
        <type>eighth</type>
        <stem>up</stem>
        <beam number="1">end</beam>
        </note>
      <backup>
        <duration>36</duration>
        </backup>
      <note>
        <pitch>
          <step>E</step>
          <alter>-1</alter>
          <octave>4</octave>
          </pitch>
        <duration>24</duration>
        <voice>2</voice>
        <type>half</type>
        <stem>down</stem>
        </note>
      <note>
        <pitch>
          <step>G</step>
          <octave>4</octave>
          </pitch>
        <duration>12</duration>
        <voice>2</voice>
        <type>quarter</type>
        <stem>down</stem>
        </note>
      </measure>
    <measure number="10">
      <note>
        <pitch>
          <step>E</step>
          <alter>-1</alter>
          <octave>5</octave>
          </pitch>
        <duration>24</duration>
        <voice>1</voice>
        <type>half</type>
        <stem>up</stem>
        <lyric number="1">
          <syllabic>single</syllabic>
          <text font-family="FreeSerif" font-size="11">once</text>
          </lyric>
        <lyric number="2">
          <syllabic>begin</syllabic>
          <text font-family="FreeSerif">pre</text>
          </lyric>
        <lyric number="3">
          <syllabic>end</syllabic>
          <text font-family="FreeSerif" font-size="11">grace</text>
          </lyric>
        <lyric number="4">
          <syllabic>single</syllabic>
          <text font-family="FreeSerif">will</text>
          </lyric>
        <lyric number="5">
          <syllabic>single</syllabic>
          <text font-family="FreeSerif" font-size="11">once</text>
          </lyric>
        <lyric number="6">
          <syllabic>single</syllabic>
          <text font-family="FreeSerif">shall</text>
          </lyric>
        <lyric number="7">
          <syllabic>single</syllabic>
          <text font-family="FreeSerif" font-size="11">God,</text>
          </lyric>
        <lyric number="8">
          <syllabic>single</syllabic>
          <text font-family="FreeSerif">no</text>
          </lyric>
        </note>
      <note>
        <pitch>
          <step>E</step>
          <alter>-1</alter>
          <octave>5</octave>
          </pitch>
        <duration>6</duration>
        <voice>1</voice>
        <type>eighth</type>
        <stem>up</stem>
        <beam number="1">begin</beam>
        <lyric number="1">
          <syllabic>single</syllabic>
          <text font-family="FreeSerif" font-size="11">was</text>
          <extend/>
          </lyric>
        <lyric number="2">
          <syllabic>end</syllabic>
          <text font-family="FreeSerif">cious</text>
          <extend/>
          </lyric>
        <lyric number="3">
          <syllabic>single</syllabic>
          <text font-family="FreeSerif" font-size="11">hath</text>
          <extend/>
          </lyric>
        <lyric number="4">
          <syllabic>single</syllabic>
          <text font-family="FreeSerif">my</text>
          <extend/>
          </lyric>
        <lyric number="5">
          <syllabic>single</syllabic>
          <text font-family="FreeSerif" font-size="11">was</text>
          <extend/>
          </lyric>
        <lyric number="6">
          <syllabic>begin</syllabic>
          <text font-family="FreeSerif">pos</text>
          </lyric>
        <lyric number="7">
          <syllabic>single</syllabic>
          <text font-family="FreeSerif" font-size="11">who</text>
          <extend/>
          </lyric>
        <lyric number="8">
          <syllabic>single</syllabic>
          <text font-family="FreeSerif">less</text>
          <extend/>
          </lyric>
        </note>
      <note>
        <pitch>
          <step>C</step>
          <octave>5</octave>
          </pitch>
        <duration>6</duration>
        <voice>1</voice>
        <type>eighth</type>
        <stem>up</stem>
        <beam number="1">end</beam>
        </note>
      <backup>
        <duration>36</duration>
        </backup>
      <note>
        <pitch>
          <step>A</step>
          <alter>-1</alter>
          <octave>4</octave>
          </pitch>
        <duration>24</duration>
        <voice>2</voice>
        <type>half</type>
        <stem>down</stem>
        </note>
      <note>
        <pitch>
          <step>A</step>
          <alter>-1</alter>
          <octave>4</octave>
          </pitch>
        <duration>6</duration>
        <voice>2</voice>
        <type>eighth</type>
        <stem>down</stem>
        <beam number="1">begin</beam>
        </note>
      <note>
        <pitch>
          <step>E</step>
          <alter>-1</alter>
          <octave>4</octave>
          </pitch>
        <duration>6</duration>
        <voice>2</voice>
        <type>eighth</type>
        <stem>down</stem>
        <beam number="1">end</beam>
        </note>
      </measure>
    <measure number="11">
      <note>
        <pitch>
          <step>A</step>
          <alter>-1</alter>
          <octave>4</octave>
          </pitch>
        <duration>24</duration>
        <voice>1</voice>
        <type>half</type>
        <stem>up</stem>
        <lyric number="1">
          <syllabic>single</syllabic>
          <text font-family="FreeSerif" font-size="11">lost,</text>
          </lyric>
        <lyric number="2">
          <syllabic>single</syllabic>
          <text font-family="FreeSerif">did</text>
          </lyric>
        <lyric number="3">
          <syllabic>single</syllabic>
          <text font-family="FreeSerif" font-size="11">bro't</text>
          </lyric>
        <lyric number="4">
          <syllabic>single</syllabic>
          <text font-family="FreeSerif">shield</text>
          </lyric>
        <lyric number="5">
          <syllabic>single</syllabic>
          <text font-family="FreeSerif" font-size="11">lost,</text>
          </lyric>
        <lyric number="6">
          <syllabic>end</syllabic>
          <text font-family="FreeSerif">sess,</text>
          </lyric>
        <lyric number="7">
          <syllabic>single</syllabic>
          <text font-family="FreeSerif" font-size="11">called</text>
          </lyric>
        <lyric number="8">
          <syllabic>single</syllabic>
          <text font-family="FreeSerif">days</text>
          </lyric>
        </note>
      <note>
        <pitch>
          <step>E</step>
          <alter>-1</alter>
          <octave>4</octave>
          </pitch>
        <duration>12</duration>
        <voice>1</voice>
        <type>quarter</type>
        <stem>up</stem>
        <lyric number="1">
          <syllabic>single</syllabic>
          <text font-family="FreeSerif" font-size="11">but</text>
          </lyric>
        <lyric number="2">
          <syllabic>single</syllabic>
          <text font-family="FreeSerif">that</text>
          </lyric>
        <lyric number="3">
          <syllabic>single</syllabic>
          <text font-family="FreeSerif" font-size="11">me</text>
          </lyric>
        <lyric number="4">
          <syllabic>single</syllabic>
          <text font-family="FreeSerif">and</text>
          </lyric>
        <lyric number="5">
          <syllabic>single</syllabic>
          <text font-family="FreeSerif" font-size="11">but</text>
          </lyric>
        <lyric number="6">
          <syllabic>begin</syllabic>
          <text font-family="FreeSerif">with</text>
          </lyric>
        <lyric number="7">
          <syllabic>single</syllabic>
          <text font-family="FreeSerif" font-size="11">me</text>
          </lyric>
        <lyric number="8">
          <syllabic>single</syllabic>
          <text font-family="FreeSerif">to</text>
          </lyric>
        </note>
      <backup>
        <duration>36</duration>
        </backup>
      <note>
        <pitch>
          <step>A</step>
          <alter>-1</alter>
          <octave>4</octave>
          </pitch>
        <duration>24</duration>
        <voice>2</voice>
        <type>half</type>
        <stem>down</stem>
        </note>
      <note>
        <pitch>
          <step>E</step>
          <alter>-1</alter>
          <octave>4</octave>
          </pitch>
        <duration>12</duration>
        <voice>2</voice>
        <type>quarter</type>
        <stem>down</stem>
        </note>
      </measure>
    <measure number="12">
      <print new-page="yes"/>
      <note>
        <pitch>
          <step>F</step>
          <octave>4</octave>
          </pitch>
        <duration>24</duration>
        <voice>1</voice>
        <type>half</type>
        <stem>up</stem>
        <lyric number="1">
          <syllabic>single</syllabic>
          <text font-family="FreeSerif" font-size="11">now</text>
          </lyric>
        <lyric number="2">
          <syllabic>single</syllabic>
          <text font-family="FreeSerif">grace</text>
          </lyric>
        <lyric number="3">
          <syllabic>single</syllabic>
          <text font-family="FreeSerif" font-size="11">safe</text>
          </lyric>
        <lyric number="4">
          <syllabic>begin</syllabic>
          <text font-family="FreeSerif">por</text>
          </lyric>
        <lyric number="5">
          <syllabic>single</syllabic>
          <text font-family="FreeSerif" font-size="11">now</text>
          </lyric>
        <lyric number="6">
          <syllabic>end</syllabic>
          <text font-family="FreeSerif">in</text>
          </lyric>
        <lyric number="7">
          <syllabic>single</syllabic>
          <text font-family="FreeSerif" font-size="11">here</text>
          </lyric>
        <lyric number="8">
          <syllabic>single</syllabic>
          <text font-family="FreeSerif">sing</text>
          </lyric>
        </note>
      <note>
        <pitch>
          <step>A</step>
          <alter>-1</alter>
          <octave>4</octave>
          </pitch>
        <duration>6</duration>
        <voice>1</voice>
        <type>eighth</type>
        <stem>up</stem>
        <beam number="1">begin</beam>
        <lyric number="1">
          <syllabic>single</syllabic>
          <text font-family="FreeSerif" font-size="11">I 'm</text>
          <extend/>
          </lyric>
        <lyric number="2">
          <syllabic>begin</syllabic>
          <text font-family="FreeSerif">ap</text>
          </lyric>
        <lyric number="3">
          <syllabic>single</syllabic>
          <text font-family="FreeSerif" font-size="11">thus</text>
          <extend/>
          </lyric>
        <lyric number="4">
          <syllabic>end</syllabic>
          <text font-family="FreeSerif">tion</text>
          <extend/>
          </lyric>
        <lyric number="5">
          <syllabic>single</syllabic>
          <text font-family="FreeSerif" font-size="11">I 'm</text>
          <extend/>
          </lyric>
        <lyric number="6">
          <syllabic>single</syllabic>
          <text font-family="FreeSerif">the</text>
          <extend/>
          </lyric>
        <lyric number="7">
          <syllabic>begin</syllabic>
          <text font-family="FreeSerif" font-size="11">be</text>
          </lyric>
        <lyric number="8">
          <syllabic>single</syllabic>
          <text font-family="FreeSerif">God's</text>
          <extend/>
          </lyric>
        </note>
      <note>
        <pitch>
          <step>F</step>
          <octave>4</octave>
          </pitch>
        <duration>6</duration>
        <voice>1</voice>
        <type>eighth</type>
        <stem>up</stem>
        <beam number="1">end</beam>
        </note>
      <backup>
        <duration>36</duration>
        </backup>
      <note>
        <pitch>
          <step>F</step>
          <octave>4</octave>
          </pitch>
        <duration>24</duration>
        <voice>2</voice>
        <type>half</type>
        <stem>down</stem>
        </note>
      <note>
        <pitch>
          <step>D</step>
          <alter>-1</alter>
          <octave>4</octave>
          </pitch>
        <duration>12</duration>
        <voice>2</voice>
        <type>quarter</type>
        <stem>down</stem>
        </note>
      </measure>
    <measure number="13">
      <note>
        <pitch>
          <step>E</step>
          <alter>-1</alter>
          <octave>4</octave>
          </pitch>
        <duration>24</duration>
        <voice>1</voice>
        <type>half</type>
        <stem>up</stem>
        <notations>
          <articulations>
            <breath-mark/>
            </articulations>
          </notations>
        <lyric number="1">
          <syllabic>single</syllabic>
          <text font-family="FreeSerif" font-size="11">found;</text>
          </lyric>
        <lyric number="2">
          <syllabic>end</syllabic>
          <text font-family="FreeSerif">pear</text>
          </lyric>
        <lyric number="3">
          <syllabic>single</syllabic>
          <text font-family="FreeSerif" font-size="11">far,</text>
          </lyric>
        <lyric number="4">
          <syllabic>single</syllabic>
          <text font-family="FreeSerif">be</text>
          </lyric>
        <lyric number="5">
          <syllabic>single</syllabic>
          <text font-family="FreeSerif" font-size="11">found;</text>
          </lyric>
        <lyric number="6">
          <syllabic>single</syllabic>
          <text font-family="FreeSerif">veil,</text>
          </lyric>
        <lyric number="7">
          <syllabic>end</syllabic>
          <text font-family="FreeSerif" font-size="11">low,</text>
          </lyric>
        <lyric number="8">
          <syllabic>single</syllabic>
          <text font-family="FreeSerif">praise</text>
          </lyric>
        </note>
      <note>
        <pitch>
          <step>E</step>
          <alter>-1</alter>
          <octave>4</octave>
          </pitch>
        <duration>6</duration>
        <voice>1</voice>
        <type>eighth</type>
        <stem>up</stem>
        <beam number="1">begin</beam>
        <lyric number="1">
          <syllabic>single</syllabic>
          <text font-family="FreeSerif" font-size="11">Was</text>
          <extend/>
          </lyric>
        <lyric number="2">
          <syllabic>single</syllabic>
          <text font-family="FreeSerif">The</text>
          <extend/>
          </lyric>
        <lyric number="3">
          <syllabic>single</syllabic>
          <text font-family="FreeSerif" font-size="11">And</text>
          <extend/>
          </lyric>
        <lyric number="4">
          <syllabic>single</syllabic>
          <text font-family="FreeSerif">As</text>
          <extend/>
          </lyric>
        <lyric number="5">
          <syllabic>single</syllabic>
          <text font-family="FreeSerif" font-size="11">Was</text>
          <extend/>
          </lyric>
        <lyric number="6">
          <syllabic>single</syllabic>
          <text font-family="FreeSerif">A</text>
          <extend/>
          </lyric>
        <lyric number="7">
          <syllabic>single</syllabic>
          <text font-family="FreeSerif" font-size="11">Will</text>
          <extend/>
          </lyric>
        <lyric number="8">
          <syllabic>single</syllabic>
          <text font-family="FreeSerif">Than</text>
          <extend/>
          </lyric>
        </note>
      <note>
        <pitch>
          <step>F</step>
          <octave>4</octave>
          </pitch>
        <duration>6</duration>
        <voice>1</voice>
        <type>eighth</type>
        <stem>up</stem>
        <beam number="1">end</beam>
        </note>
      <backup>
        <duration>36</duration>
        </backup>
      <note>
        <pitch>
          <step>C</step>
          <octave>4</octave>
          </pitch>
        <duration>24</duration>
        <voice>2</voice>
        <type>half</type>
        <stem>down</stem>
        </note>
      <note>
        <pitch>
          <step>C</step>
          <octave>4</octave>
          </pitch>
        <duration>6</duration>
        <voice>2</voice>
        <type>eighth</type>
        <stem>down</stem>
        <beam number="1">begin</beam>
        </note>
      <note>
        <pitch>
          <step>D</step>
          <alter>-1</alter>
          <octave>4</octave>
          </pitch>
        <duration>6</duration>
        <voice>2</voice>
        <type>eighth</type>
        <stem>down</stem>
        <beam number="1">end</beam>
        </note>
      </measure>
    <measure number="14">
      <note>
        <pitch>
          <step>A</step>
          <alter>-1</alter>
          <octave>4</octave>
          </pitch>
        <duration>24</duration>
        <voice>1</voice>
        <type>half</type>
        <stem>up</stem>
        <lyric number="1">
          <syllabic>single</syllabic>
          <text font-family="FreeSerif" font-size="11">blind,</text>
          </lyric>
        <lyric number="2">
          <syllabic>single</syllabic>
          <text font-family="FreeSerif">hour</text>
          </lyric>
        <lyric number="3">
          <syllabic>single</syllabic>
          <text font-family="FreeSerif" font-size="11">grace</text>
          </lyric>
        <lyric number="4">
          <syllabic>single</syllabic>
          <text font-family="FreeSerif">long</text>
          </lyric>
        <lyric number="5">
          <syllabic>single</syllabic>
          <text font-family="FreeSerif" font-size="11">blind,</text>
          </lyric>
        <lyric number="6">
          <syllabic>single</syllabic>
          <text font-family="FreeSerif">life</text>
          </lyric>
        <lyric number="7">
          <syllabic>single</syllabic>
          <text font-family="FreeSerif" font-size="11">be</text>
          </lyric>
        <lyric number="8">
          <syllabic>single</syllabic>
          <text font-family="FreeSerif">when</text>
          </lyric>
        </note>
      <note>
        <pitch>
          <step>C</step>
          <octave>5</octave>
          </pitch>
        <duration>4</duration>
        <voice>1</voice>
        <type>eighth</type>
        <time-modification>
          <actual-notes>3</actual-notes>
          <normal-notes>2</normal-notes>
          </time-modification>
        <stem>up</stem>
        <beam number="1">begin</beam>
        <notations>
          <tuplet type="start" bracket="no"/>
          </notations>
        <lyric number="1">
          <syllabic>single</syllabic>
          <text font-family="FreeSerif" font-size="11">but</text>
          <extend/>
          </lyric>
        <lyric number="2">
          <syllabic>single</syllabic>
          <text font-family="FreeSerif">I</text>
          <extend/>
          </lyric>
        <lyric number="3">
          <syllabic>single</syllabic>
          <text font-family="FreeSerif" font-size="11">will</text>
          <extend/>
          </lyric>
        <lyric number="4">
          <syllabic>single</syllabic>
          <text font-family="FreeSerif">as</text>
          <extend/>
          </lyric>
        <lyric number="5">
          <syllabic>single</syllabic>
          <text font-family="FreeSerif" font-size="11">but</text>
          <extend/>
          </lyric>
        <lyric number="6">
          <syllabic>single</syllabic>
          <text font-family="FreeSerif">of</text>
          <extend/>
          </lyric>
        <lyric number="7">
          <syllabic>begin</syllabic>
          <text font-family="FreeSerif" font-size="11">vor</text>
          </lyric>
        <lyric number="8">
          <syllabic>single</syllabic>
          <text font-family="FreeSerif">we 'd</text>
          <extend/>
          </lyric>
        </note>
      <note>
        <pitch>
          <step>B</step>
          <alter>-1</alter>
          <octave>4</octave>
          </pitch>
        <duration>4</duration>
        <voice>1</voice>
        <type>eighth</type>
        <time-modification>
          <actual-notes>3</actual-notes>
          <normal-notes>2</normal-notes>
          </time-modification>
        <stem>up</stem>
        <beam number="1">continue</beam>
        </note>
      <note>
        <pitch>
          <step>A</step>
          <alter>-1</alter>
          <octave>4</octave>
          </pitch>
        <duration>4</duration>
        <voice>1</voice>
        <type>eighth</type>
        <time-modification>
          <actual-notes>3</actual-notes>
          <normal-notes>2</normal-notes>
          </time-modification>
        <stem>up</stem>
        <beam number="1">end</beam>
        <notations>
          <tuplet type="stop"/>
          </notations>
        </note>
      <backup>
        <duration>36</duration>
        </backup>
      <note>
        <pitch>
          <step>C</step>
          <octave>4</octave>
          </pitch>
        <duration>24</duration>
        <voice>2</voice>
        <type>half</type>
        <stem>down</stem>
        </note>
      <note>
        <pitch>
          <step>E</step>
          <alter>-1</alter>
          <octave>4</octave>
          </pitch>
        <duration>4</duration>
        <voice>2</voice>
        <type>eighth</type>
        <time-modification>
          <actual-notes>3</actual-notes>
          <normal-notes>2</normal-notes>
          </time-modification>
        <stem>down</stem>
        <beam number="1">begin</beam>
        <notations>
          <tuplet type="start" bracket="no"/>
          </notations>
        </note>
      <note>
        <pitch>
          <step>D</step>
          <alter>-1</alter>
          <octave>4</octave>
          </pitch>
        <duration>4</duration>
        <voice>2</voice>
        <type>eighth</type>
        <time-modification>
          <actual-notes>3</actual-notes>
          <normal-notes>2</normal-notes>
          </time-modification>
        <stem>down</stem>
        <beam number="1">continue</beam>
        </note>
      <note>
        <pitch>
          <step>C</step>
          <octave>4</octave>
          </pitch>
        <duration>4</duration>
        <voice>2</voice>
        <type>eighth</type>
        <time-modification>
          <actual-notes>3</actual-notes>
          <normal-notes>2</normal-notes>
          </time-modification>
        <stem>down</stem>
        <beam number="1">end</beam>
        <notations>
          <tuplet type="stop"/>
          </notations>
        </note>
      </measure>
    <measure number="15">
      <note>
        <pitch>
          <step>C</step>
          <octave>5</octave>
          </pitch>
        <duration>24</duration>
        <voice>1</voice>
        <type>half</type>
        <stem>up</stem>
        <lyric number="1">
          <syllabic>single</syllabic>
          <text font-family="FreeSerif" font-size="11">now</text>
          </lyric>
        <lyric number="2">
          <syllabic>single</syllabic>
          <text font-family="FreeSerif">first</text>
          </lyric>
        <lyric number="3">
          <syllabic>single</syllabic>
          <text font-family="FreeSerif" font-size="11">lead</text>
          </lyric>
        <lyric number="4">
          <syllabic>single</syllabic>
          <text font-family="FreeSerif">life</text>
          </lyric>
        <lyric number="5">
          <syllabic>single</syllabic>
          <text font-family="FreeSerif" font-size="11">now</text>
          </lyric>
        <lyric number="6">
          <syllabic>single</syllabic>
          <text font-family="FreeSerif">joy</text>
          </lyric>
        <lyric number="7">
          <syllabic>middle</syllabic>
          <text font-family="FreeSerif" font-size="11">e</text>
          </lyric>
        <lyric number="8">
          <syllabic>single</syllabic>
          <text font-family="FreeSerif">first</text>
          </lyric>
        </note>
      <note>
        <pitch>
          <step>B</step>
          <alter>-1</alter>
          <octave>4</octave>
          </pitch>
        <duration>12</duration>
        <voice>1</voice>
        <type>quarter</type>
        <stem>up</stem>
        <lyric number="1">
          <syllabic>single</syllabic>
          <text font-family="FreeSerif" font-size="11">I</text>
          </lyric>
        <lyric number="2">
          <syllabic>begin</syllabic>
          <text font-family="FreeSerif">be</text>
          </lyric>
        <lyric number="3">
          <syllabic>single</syllabic>
          <text font-family="FreeSerif" font-size="11">me</text>
          </lyric>
        <lyric number="4">
          <syllabic>begin</syllabic>
          <text font-family="FreeSerif">en</text>
          </lyric>
        <lyric number="5">
          <syllabic>single</syllabic>
          <text font-family="FreeSerif" font-size="11">I</text>
          </lyric>
        <lyric number="6">
          <syllabic>single</syllabic>
          <text font-family="FreeSerif">and</text>
          </lyric>
        <lyric number="7">
          <syllabic>end</syllabic>
          <text font-family="FreeSerif" font-size="11">ver</text>
          </lyric>
        <lyric number="8">
          <syllabic>begin</syllabic>
          <text font-family="FreeSerif">be</text>
          </lyric>
        </note>
      <backup>
        <duration>36</duration>
        </backup>
      <note>
        <pitch>
          <step>E</step>
          <alter>-1</alter>
          <octave>4</octave>
          </pitch>
        <duration>24</duration>
        <voice>2</voice>
        <type>half</type>
        <stem>down</stem>
        </note>
      <note>
        <pitch>
          <step>D</step>
          <alter>-1</alter>
          <octave>4</octave>
          </pitch>
        <duration>12</duration>
        <voice>2</voice>
        <type>quarter</type>
        <stem>down</stem>
        </note>
      </measure>
    <measure number="16">
      <note>
        <pitch>
          <step>A</step>
          <alter>-1</alter>
          <octave>4</octave>
          </pitch>
        <duration>36</duration>
        <tie type="start"/>
        <voice>1</voice>
        <type>half</type>
        <dot/>
        <stem>up</stem>
        <notations>
          <tied type="start"/>
          </notations>
        <lyric number="1">
          <syllabic>single</syllabic>
          <text font-family="FreeSerif" font-size="11">see.</text>
          <extend/>
          </lyric>
        <lyric number="2">
          <syllabic>end</syllabic>
          <text font-family="FreeSerif">liev'd!</text>
          <extend/>
          </lyric>
        <lyric number="3">
          <syllabic>single</syllabic>
          <text font-family="FreeSerif" font-size="11">home.</text>
          <extend/>
          </lyric>
        <lyric number="4">
          <syllabic>end</syllabic>
          <text font-family="FreeSerif">dures.</text>
          <extend/>
          </lyric>
        <lyric number="5">
          <syllabic>single</syllabic>
          <text font-family="FreeSerif" font-size="11">see.</text>
          <extend/>
          </lyric>
        <lyric number="6">
          <syllabic>single</syllabic>
          <text font-family="FreeSerif">peace.</text>
          <extend/>
          </lyric>
        <lyric number="7">
          <syllabic>single</syllabic>
          <text font-family="FreeSerif" font-size="11">mine.</text>
          <extend/>
          </lyric>
        <lyric number="8">
          <syllabic>end</syllabic>
          <text font-family="FreeSerif">gun.</text>
          <extend/>
          </lyric>
        </note>
      <backup>
        <duration>36</duration>
        </backup>
      <note>
        <pitch>
          <step>C</step>
          <octave>4</octave>
          </pitch>
        <duration>21</duration>
        <voice>2</voice>
        <type>quarter</type>
        <dot/>
        <dot/>
        <stem>down</stem>
        </note>
      <note>
        <pitch>
          <step>C</step>
          <octave>4</octave>
          </pitch>
        <duration>12</duration>
        <voice>2</voice>
        <type>quarter</type>
        <stem>down</stem>
        </note>
      <note>
        <pitch>
          <step>D</step>
          <alter>-1</alter>
          <octave>4</octave>
          </pitch>
        <duration>3</duration>
        <tie type="start"/>
        <voice>2</voice>
        <type>16th</type>
        <stem>down</stem>
        <notations>
          <tied type="start"/>
          </notations>
        </note>
      </measure>
    <measure number="17">
      <note>
        <pitch>
          <step>A</step>
          <alter>-1</alter>
          <octave>4</octave>
          </pitch>
        <duration>36</duration>
        <tie type="stop"/>
        <tie type="start"/>
        <voice>1</voice>
        <type>half</type>
        <dot/>
        <stem>up</stem>
        <notations>
          <tied type="stop"/>
          <tied type="start"/>
          </notations>
        </note>
      <backup>
        <duration>36</duration>
        </backup>
      <note>
        <pitch>
          <step>D</step>
          <alter>-1</alter>
          <octave>4</octave>
          </pitch>
        <duration>6</duration>
        <tie type="stop"/>
        <voice>2</voice>
        <type>eighth</type>
        <stem>down</stem>
        <notations>
          <tied type="stop"/>
          </notations>
        </note>
      <note>
        <pitch>
          <step>B</step>
          <alter>-1</alter>
          <octave>3</octave>
          </pitch>
        <duration>18</duration>
        <voice>2</voice>
        <type>quarter</type>
        <dot/>
        <stem>down</stem>
        </note>
      <note>
        <pitch>
          <step>C</step>
          <octave>4</octave>
          </pitch>
        <duration>12</duration>
        <tie type="start"/>
        <voice>2</voice>
        <type>quarter</type>
        <stem>down</stem>
        <notations>
          <tied type="start"/>
          </notations>
        </note>
      </measure>
    <measure number="18">
      <print new-system="yes"/>
      <note>
        <pitch>
          <step>A</step>
          <alter>-1</alter>
          <octave>4</octave>
          </pitch>
        <duration>24</duration>
        <tie type="stop"/>
        <voice>1</voice>
        <type>half</type>
        <stem>up</stem>
        <notations>
          <tied type="stop"/>
          </notations>
        </note>
      <backup>
        <duration>24</duration>
        </backup>
      <note>
        <pitch>
          <step>C</step>
          <octave>4</octave>
          </pitch>
        <duration>24</duration>
        <tie type="stop"/>
        <voice>2</voice>
        <type>half</type>
        <stem>down</stem>
        <notations>
          <tied type="stop"/>
          </notations>
        </note>
      <barline location="right">
        <bar-style>light-heavy</bar-style>
        </barline>
      </measure>
    </part>
  <part id="P2">
    <measure number="1">
      <attributes>
        <divisions>12</divisions>
        <key>
          <fifths>-4</fifths>
          <mode>major</mode>
          </key>
        <time>
          <beats>3</beats>
          <beat-type>4</beat-type>
          </time>
        <clef>
          <sign>F</sign>
          <line>4</line>
          </clef>
        </attributes>
      <note>
        <pitch>
          <step>A</step>
          <alter>-1</alter>
          <octave>3</octave>
          </pitch>
        <duration>12</duration>
        <voice>1</voice>
        <type>quarter</type>
        <stem>up</stem>
        </note>
      <backup>
        <duration>12</duration>
        </backup>
      <note>
        <pitch>
          <step>A</step>
          <alter>-1</alter>
          <octave>2</octave>
          </pitch>
        <duration>12</duration>
        <voice>2</voice>
        <type>quarter</type>
        <stem>down</stem>
        </note>
      </measure>
    <measure number="2">
      <note>
        <pitch>
          <step>E</step>
          <alter>-1</alter>
          <octave>3</octave>
          </pitch>
        <duration>24</duration>
        <voice>1</voice>
        <type>half</type>
        <stem>up</stem>
        </note>
      <note>
        <pitch>
          <step>A</step>
          <alter>-1</alter>
          <octave>3</octave>
          </pitch>
        <duration>12</duration>
        <voice>1</voice>
        <type>quarter</type>
        <stem>up</stem>
        </note>
      <backup>
        <duration>36</duration>
        </backup>
      <note>
        <pitch>
          <step>A</step>
          <alter>-1</alter>
          <octave>2</octave>
          </pitch>
        <duration>24</duration>
        <voice>2</voice>
        <type>half</type>
        <stem>down</stem>
        </note>
      <note>
        <pitch>
          <step>A</step>
          <alter>-1</alter>
          <octave>2</octave>
          </pitch>
        <duration>12</duration>
        <voice>2</voice>
        <type>quarter</type>
        <stem>down</stem>
        </note>
      </measure>
    <measure number="3">
      <note>
        <pitch>
          <step>A</step>
          <alter>-1</alter>
          <octave>3</octave>
          </pitch>
        <duration>24</duration>
        <voice>1</voice>
        <type>half</type>
        <stem>up</stem>
        </note>
      <note>
        <pitch>
          <step>G</step>
          <octave>3</octave>
          </pitch>
        <duration>12</duration>
        <voice>1</voice>
        <type>quarter</type>
        <stem>up</stem>
        </note>
      <backup>
        <duration>36</duration>
        </backup>
      <note>
        <pitch>
          <step>A</step>
          <alter>-1</alter>
          <octave>2</octave>
          </pitch>
        <duration>24</duration>
        <voice>2</voice>
        <type>half</type>
        <stem>down</stem>
        </note>
      <note>
        <pitch>
          <step>E</step>
          <alter>-1</alter>
          <octave>3</octave>
          </pitch>
        <duration>12</duration>
        <voice>2</voice>
        <type>quarter</type>
        <stem>down</stem>
        </note>
      </measure>
    <measure number="4">
      <note>
        <pitch>
          <step>A</step>
          <alter>-1</alter>
          <octave>3</octave>
          </pitch>
        <duration>24</duration>
        <voice>1</voice>
        <type>half</type>
        <stem>up</stem>
        </note>
      <note>
        <pitch>
          <step>A</step>
          <alter>-1</alter>
          <octave>3</octave>
          </pitch>
        <duration>12</duration>
        <voice>1</voice>
        <type>quarter</type>
        <stem>up</stem>
        </note>
      <backup>
        <duration>36</duration>
        </backup>
      <note>
        <pitch>
          <step>F</step>
          <octave>3</octave>
          </pitch>
        <duration>24</duration>
        <voice>2</voice>
        <type>half</type>
        <stem>down</stem>
        </note>
      <note>
        <pitch>
          <step>D</step>
          <alter>-1</alter>
          <octave>3</octave>
          </pitch>
        <duration>12</duration>
        <voice>2</voice>
        <type>quarter</type>
        <stem>down</stem>
        </note>
      </measure>
    <measure number="5">
      <note>
        <pitch>
          <step>A</step>
          <alter>-1</alter>
          <octave>3</octave>
          </pitch>
        <duration>24</duration>
        <voice>1</voice>
        <type>half</type>
        <stem>up</stem>
        </note>
      <note>
        <pitch>
          <step>A</step>
          <alter>-1</alter>
          <octave>3</octave>
          </pitch>
        <duration>12</duration>
        <voice>1</voice>
        <type>quarter</type>
        <stem>up</stem>
        </note>
      <backup>
        <duration>36</duration>
        </backup>
      <note>
        <pitch>
          <step>A</step>
          <alter>-1</alter>
          <octave>2</octave>
          </pitch>
        <duration>24</duration>
        <voice>2</voice>
        <type>half</type>
        <stem>down</stem>
        </note>
      <note>
        <pitch>
          <step>A</step>
          <alter>-1</alter>
          <octave>2</octave>
          </pitch>
        <duration>12</duration>
        <voice>2</voice>
        <type>quarter</type>
        <stem>down</stem>
        </note>
      </measure>
    <measure number="6">
      <print new-system="yes"/>
      <note>
        <pitch>
          <step>E</step>
          <alter>-1</alter>
          <octave>3</octave>
          </pitch>
        <duration>24</duration>
        <voice>1</voice>
        <type>half</type>
        <stem>up</stem>
        </note>
      <note>
        <pitch>
          <step>A</step>
          <alter>-1</alter>
          <octave>3</octave>
          </pitch>
        <duration>4</duration>
        <voice>1</voice>
        <type>eighth</type>
        <time-modification>
          <actual-notes>3</actual-notes>
          <normal-notes>2</normal-notes>
          </time-modification>
        <stem>up</stem>
        <beam number="1">begin</beam>
        <notations>
          <tuplet type="start" bracket="no"/>
          </notations>
        </note>
      <note>
        <pitch>
          <step>C</step>
          <octave>4</octave>
          </pitch>
        <duration>4</duration>
        <voice>1</voice>
        <type>eighth</type>
        <time-modification>
          <actual-notes>3</actual-notes>
          <normal-notes>2</normal-notes>
          </time-modification>
        <stem>up</stem>
        <beam number="1">continue</beam>
        </note>
      <note>
        <pitch>
          <step>D</step>
          <alter>-1</alter>
          <octave>4</octave>
          </pitch>
        <duration>4</duration>
        <voice>1</voice>
        <type>eighth</type>
        <time-modification>
          <actual-notes>3</actual-notes>
          <normal-notes>2</normal-notes>
          </time-modification>
        <stem>up</stem>
        <beam number="1">end</beam>
        <notations>
          <tuplet type="stop"/>
          </notations>
        </note>
      <backup>
        <duration>36</duration>
        </backup>
      <note>
        <pitch>
          <step>A</step>
          <alter>-1</alter>
          <octave>2</octave>
          </pitch>
        <duration>24</duration>
        <voice>2</voice>
        <type>half</type>
        <stem>down</stem>
        </note>
      <note>
        <pitch>
          <step>A</step>
          <alter>-1</alter>
          <octave>2</octave>
          </pitch>
        <duration>12</duration>
        <voice>2</voice>
        <type>quarter</type>
        <stem>down</stem>
        </note>
      </measure>
    <measure number="7">
      <note>
        <pitch>
          <step>A</step>
          <alter>-1</alter>
          <octave>3</octave>
          </pitch>
        <duration>24</duration>
        <voice>1</voice>
        <type>half</type>
        <stem>up</stem>
        </note>
      <note>
        <pitch>
          <step>A</step>
          <alter>-1</alter>
          <octave>3</octave>
          </pitch>
        <duration>12</duration>
        <voice>1</voice>
        <type>quarter</type>
        <stem>up</stem>
        </note>
      <backup>
        <duration>36</duration>
        </backup>
      <note>
        <pitch>
          <step>A</step>
          <alter>-1</alter>
          <octave>3</octave>
          </pitch>
        <duration>24</duration>
        <voice>2</voice>
        <type>half</type>
        <stem>down</stem>
        </note>
      <note>
        <pitch>
          <step>F</step>
          <octave>3</octave>
          </pitch>
        <duration>12</duration>
        <voice>2</voice>
        <type>quarter</type>
        <stem>down</stem>
        </note>
      </measure>
    <measure number="8">
      <note>
        <pitch>
          <step>G</step>
          <octave>3</octave>
          </pitch>
        <duration>12</duration>
        <voice>1</voice>
        <type>quarter</type>
        <stem>up</stem>
        <notations>
          <slur type="start" placement="above" number="1"/>
          </notations>
        </note>
      <note>
        <pitch>
          <step>A</step>
          <alter>-1</alter>
          <octave>3</octave>
          </pitch>
        <duration>12</duration>
        <voice>1</voice>
        <type>quarter</type>
        <stem>up</stem>
        </note>
      <note>
        <pitch>
          <step>A</step>
          <octave>3</octave>
          </pitch>
        <duration>12</duration>
        <voice>1</voice>
        <type>quarter</type>
        <accidental>natural</accidental>
        <stem>up</stem>
        <notations>
          <slur type="stop" number="1"/>
          </notations>
        </note>
      <backup>
        <duration>36</duration>
        </backup>
      <note>
        <pitch>
          <step>E</step>
          <alter>-1</alter>
          <octave>3</octave>
          </pitch>
        <duration>12</duration>
        <voice>2</voice>
        <type>quarter</type>
        <stem>down</stem>
        <notations>
          <slur type="start" placement="below" number="1"/>
          </notations>
        </note>
      <note>
        <pitch>
          <step>F</step>
          <octave>3</octave>
          </pitch>
        <duration>12</duration>
        <voice>2</voice>
        <type>quarter</type>
        <stem>down</stem>
        </note>
      <note>
        <pitch>
          <step>F</step>
          <alter>1</alter>
          <octave>3</octave>
          </pitch>
        <duration>12</duration>
        <voice>2</voice>
        <type>quarter</type>
        <accidental>sharp</accidental>
        <stem>down</stem>
        <notations>
          <slur type="stop" number="1"/>
          </notations>
        </note>
      </measure>
    <measure number="9">
      <note>
        <pitch>
          <step>B</step>
          <alter>-1</alter>
          <octave>3</octave>
          </pitch>
        <duration>24</duration>
        <voice>1</voice>
        <type>half</type>
        <stem>up</stem>
        </note>
      <note>
        <pitch>
          <step>E</step>
          <alter>-1</alter>
          <octave>4</octave>
          </pitch>
        <duration>12</duration>
        <voice>1</voice>
        <type>quarter</type>
        <stem>up</stem>
        </note>
      <backup>
        <duration>36</duration>
        </backup>
      <note>
        <pitch>
          <step>G</step>
          <octave>3</octave>
          </pitch>
        <duration>24</duration>
        <voice>2</voice>
        <type>half</type>
        <stem>down</stem>
        </note>
      <note>
        <pitch>
          <step>E</step>
          <alter>-1</alter>
          <octave>3</octave>
          </pitch>
        <duration>12</duration>
        <voice>2</voice>
        <type>quarter</type>
        <stem>down</stem>
        </note>
      </measure>
    <measure number="10">
      <note>
        <pitch>
          <step>A</step>
          <alter>-1</alter>
          <octave>3</octave>
          </pitch>
        <duration>24</duration>
        <voice>1</voice>
        <type>half</type>
        <stem>up</stem>
        </note>
      <note>
        <pitch>
          <step>A</step>
          <alter>-1</alter>
          <octave>3</octave>
          </pitch>
        <duration>6</duration>
        <voice>1</voice>
        <type>eighth</type>
        <stem>up</stem>
        <beam number="1">begin</beam>
        </note>
      <note>
        <pitch>
          <step>A</step>
          <alter>-1</alter>
          <octave>3</octave>
          </pitch>
        <duration>6</duration>
        <voice>1</voice>
        <type>eighth</type>
        <stem>up</stem>
        <beam number="1">end</beam>
        </note>
      <backup>
        <duration>36</duration>
        </backup>
      <note>
        <rest>
          <display-step>E</display-step>
          <display-octave>2</display-octave>
          </rest>
        <duration>36</duration>
        <voice>2</voice>
        <type>half</type>
        <dot/>
        </note>
      </measure>
    <measure number="11">
      <note>
        <pitch>
          <step>C</step>
          <octave>4</octave>
          </pitch>
        <duration>24</duration>
        <voice>1</voice>
        <type>half</type>
        <stem>up</stem>
        </note>
      <note>
        <pitch>
          <step>C</step>
          <octave>4</octave>
          </pitch>
        <duration>12</duration>
        <voice>1</voice>
        <type>quarter</type>
        <stem>up</stem>
        </note>
      <backup>
        <duration>36</duration>
        </backup>
      <note>
        <pitch>
          <step>A</step>
          <alter>-1</alter>
          <octave>3</octave>
          </pitch>
        <duration>24</duration>
        <voice>2</voice>
        <type>half</type>
        <stem>down</stem>
        </note>
      <note>
        <pitch>
          <step>A</step>
          <alter>-1</alter>
          <octave>3</octave>
          </pitch>
        <duration>12</duration>
        <voice>2</voice>
        <type>quarter</type>
        <stem>down</stem>
        </note>
      </measure>
    <measure number="12">
      <print new-page="yes"/>
      <note>
        <pitch>
          <step>D</step>
          <alter>-1</alter>
          <octave>3</octave>
          </pitch>
        <duration>24</duration>
        <voice>1</voice>
        <type>half</type>
        <stem>down</stem>
        </note>
      <note>
        <pitch>
          <step>D</step>
          <alter>-1</alter>
          <octave>3</octave>
          </pitch>
        <duration>12</duration>
        <voice>1</voice>
        <type>quarter</type>
        <stem>down</stem>
        </note>
      </measure>
    <measure number="13">
      <note>
        <pitch>
          <step>A</step>
          <alter>-1</alter>
          <octave>3</octave>
          </pitch>
        <duration>24</duration>
        <voice>1</voice>
        <type>half</type>
        <stem>up</stem>
        </note>
      <note>
        <pitch>
          <step>A</step>
          <alter>-1</alter>
          <octave>3</octave>
          </pitch>
        <duration>12</duration>
        <voice>1</voice>
        <type>quarter</type>
        <stem>up</stem>
        </note>
      <backup>
        <duration>36</duration>
        </backup>
      <note>
        <pitch>
          <step>A</step>
          <alter>-1</alter>
          <octave>2</octave>
          </pitch>
        <duration>24</duration>
        <voice>2</voice>
        <type>half</type>
        <stem>down</stem>
        </note>
      <note>
        <pitch>
          <step>A</step>
          <alter>-1</alter>
          <octave>3</octave>
          </pitch>
        <duration>12</duration>
        <voice>2</voice>
        <type>quarter</type>
        <stem>down</stem>
        </note>
      </measure>
    <measure number="14">
      <note>
        <pitch>
          <step>A</step>
          <alter>-1</alter>
          <octave>3</octave>
          </pitch>
        <duration>24</duration>
        <voice>1</voice>
        <type>half</type>
        <stem>up</stem>
        </note>
      <note>
        <pitch>
          <step>A</step>
          <alter>-1</alter>
          <octave>3</octave>
          </pitch>
        <duration>12</duration>
        <voice>1</voice>
        <type>quarter</type>
        <stem>up</stem>
        </note>
      <backup>
        <duration>36</duration>
        </backup>
      <note>
        <pitch>
          <step>F</step>
          <octave>3</octave>
          </pitch>
        <duration>24</duration>
        <voice>2</voice>
        <type>half</type>
        <stem>down</stem>
        </note>
      <note>
        <pitch>
          <step>E</step>
          <alter>-1</alter>
          <octave>3</octave>
          </pitch>
        <duration>12</duration>
        <voice>2</voice>
        <type>quarter</type>
        <stem>down</stem>
        </note>
      </measure>
    <measure number="15">
      <note>
        <pitch>
          <step>G</step>
          <octave>3</octave>
          </pitch>
        <duration>24</duration>
        <voice>1</voice>
        <type>half</type>
        <stem>up</stem>
        </note>
      <note>
        <pitch>
          <step>G</step>
          <octave>3</octave>
          </pitch>
        <duration>12</duration>
        <voice>1</voice>
        <type>quarter</type>
        <stem>up</stem>
        </note>
      <backup>
        <duration>36</duration>
        </backup>
      <note>
        <pitch>
          <step>E</step>
          <alter>-1</alter>
          <octave>3</octave>
          </pitch>
        <duration>24</duration>
        <voice>2</voice>
        <type>half</type>
        <stem>down</stem>
        </note>
      <note>
        <pitch>
          <step>E</step>
          <alter>-1</alter>
          <octave>3</octave>
          </pitch>
        <duration>12</duration>
        <voice>2</voice>
        <type>quarter</type>
        <stem>down</stem>
        </note>
      </measure>
    <measure number="16">
      <note>
        <pitch>
          <step>E</step>
          <alter>-1</alter>
          <octave>3</octave>
          </pitch>
        <duration>21</duration>
        <voice>1</voice>
        <type>quarter</type>
        <dot/>
        <dot/>
        <stem>up</stem>
        </note>
      <note>
        <pitch>
          <step>E</step>
          <alter>-1</alter>
          <octave>3</octave>
          </pitch>
        <duration>6</duration>
        <voice>1</voice>
        <type>eighth</type>
        <stem>up</stem>
        <beam number="1">begin</beam>
        </note>
      <note>
        <pitch>
          <step>F</step>
          <octave>3</octave>
          </pitch>
        <duration>9</duration>
        <tie type="start"/>
        <voice>1</voice>
        <type>eighth</type>
        <dot/>
        <stem>up</stem>
        <beam number="1">end</beam>
        <notations>
          <tied type="start"/>
          </notations>
        </note>
      <backup>
        <duration>36</duration>
        </backup>
      <note>
        <pitch>
          <step>A</step>
          <alter>-1</alter>
          <octave>2</octave>
          </pitch>
        <duration>21</duration>
        <voice>2</voice>
        <type>quarter</type>
        <dot/>
        <dot/>
        <stem>down</stem>
        </note>
      <note>
        <pitch>
          <step>C</step>
          <octave>3</octave>
          </pitch>
        <duration>6</duration>
        <voice>2</voice>
        <type>eighth</type>
        <stem>down</stem>
        <beam number="1">begin</beam>
        </note>
      <note>
        <pitch>
          <step>D</step>
          <alter>-1</alter>
          <octave>3</octave>
          </pitch>
        <duration>9</duration>
        <tie type="start"/>
        <voice>2</voice>
        <type>eighth</type>
        <dot/>
        <stem>down</stem>
        <beam number="1">end</beam>
        <notations>
          <tied type="start"/>
          </notations>
        </note>
      </measure>
    <measure number="17">
      <note>
        <pitch>
          <step>F</step>
          <octave>3</octave>
          </pitch>
        <duration>6</duration>
        <tie type="stop"/>
        <voice>1</voice>
        <type>eighth</type>
        <stem>up</stem>
        <notations>
          <tied type="stop"/>
          </notations>
        </note>
      <note>
        <pitch>
          <step>F</step>
          <alter>-1</alter>
          <octave>3</octave>
          </pitch>
        <duration>18</duration>
        <voice>1</voice>
        <type>quarter</type>
        <dot/>
        <accidental>flat</accidental>
        <stem>up</stem>
        </note>
      <note>
        <pitch>
          <step>E</step>
          <alter>-1</alter>
          <octave>3</octave>
          </pitch>
        <duration>12</duration>
        <tie type="start"/>
        <voice>1</voice>
        <type>quarter</type>
        <stem>up</stem>
        <notations>
          <tied type="start"/>
          </notations>
        </note>
      <backup>
        <duration>36</duration>
        </backup>
      <note>
        <pitch>
          <step>D</step>
          <alter>-1</alter>
          <octave>3</octave>
          </pitch>
        <duration>6</duration>
        <tie type="stop"/>
        <voice>2</voice>
        <type>eighth</type>
        <stem>down</stem>
        <notations>
          <tied type="stop"/>
          </notations>
        </note>
      <note>
        <pitch>
          <step>D</step>
          <alter>-1</alter>
          <octave>3</octave>
          </pitch>
        <duration>18</duration>
        <voice>2</voice>
        <type>quarter</type>
        <dot/>
        <stem>down</stem>
        </note>
      <note>
        <pitch>
          <step>A</step>
          <alter>-1</alter>
          <octave>2</octave>
          </pitch>
        <duration>12</duration>
        <tie type="start"/>
        <voice>2</voice>
        <type>quarter</type>
        <stem>down</stem>
        <notations>
          <tied type="start"/>
          </notations>
        </note>
      </measure>
    <measure number="18">
      <print new-system="yes"/>
      <note>
        <pitch>
          <step>E</step>
          <alter>-1</alter>
          <octave>3</octave>
          </pitch>
        <duration>24</duration>
        <tie type="stop"/>
        <voice>1</voice>
        <type>half</type>
        <stem>up</stem>
        <notations>
          <tied type="stop"/>
          </notations>
        </note>
      <backup>
        <duration>24</duration>
        </backup>
      <note>
        <pitch>
          <step>A</step>
          <alter>-1</alter>
          <octave>2</octave>
          </pitch>
        <duration>24</duration>
        <tie type="stop"/>
        <voice>2</voice>
        <type>half</type>
        <stem>down</stem>
        <notations>
          <tied type="stop"/>
          </notations>
        </note>
      <barline location="right">
        <bar-style>light-heavy</bar-style>
        </barline>
      </measure>
    </part>
  </score-partwise>
